<?xml version="1.0" encoding="UTF-8"?>
<svg version="1.1" xmlns="http://www.w3.org/2000/svg" width="937" height="266">
<path d="M0 0 C2.86688248 0.09096556 5.70300515 0.23767988 8.5625 0.4375 C9.36880859 0.48970703 10.17511719 0.54191406 11.00585938 0.59570312 C13.00421738 0.72577376 15.00215386 0.86229056 17 1 C17.33 3.31 17.66 5.62 18 8 C18.50789063 7.59007813 19.01578125 7.18015625 19.5390625 6.7578125 C20.57160156 5.94957031 20.57160156 5.94957031 21.625 5.125 C22.29789062 4.59132813 22.97078125 4.05765625 23.6640625 3.5078125 C30.94202482 -1.19000264 40.13475594 -1.11674247 48.44140625 0.46484375 C53.44298956 2.11898774 57.37234909 5.22514007 61 9 C61.495 9.99 61.495 9.99 62 11 C62.46148438 10.54109375 62.92296875 10.0821875 63.3984375 9.609375 C70.57287254 2.86030172 77.08429115 -0.16660849 87 -0.5 C95.19550308 -0.22414702 101.69655403 1.59966671 107.875 7.125 C114.60580582 14.80819793 115.58233705 23.25290858 115.390625 33.1328125 C115.38496521 34.25066132 115.37930542 35.36851013 115.37347412 36.52023315 C115.3512622 40.05560961 115.30109311 43.58993504 115.25 47.125 C115.22991543 49.53644359 115.21166811 51.94790323 115.1953125 54.359375 C115.15144701 60.23998213 115.08252448 66.11981349 115 72 C109.06 72 103.12 72 97 72 C96.98541748 70.70376709 96.97083496 69.40753418 96.95581055 68.07202148 C96.89764901 63.24297092 96.82041709 58.41437793 96.73754883 53.58569336 C96.70438339 51.49950613 96.67632557 49.41323098 96.65356445 47.3269043 C96.61986431 44.32042121 96.56754032 41.31473775 96.51171875 38.30859375 C96.50532883 37.38227646 96.4989389 36.45595917 96.49235535 35.50157166 C96.36728906 29.93900116 95.69605244 25.90568085 93 21 C88.61515863 17.83883529 84.27975885 17.26471443 79 18 C74.59169285 19.32249215 72.52976312 20.34476666 69.625 23.9375 C67.57646169 27.79820682 66.88838488 30.88047149 66.79467773 35.21777344 C66.77473251 36.03832214 66.75478729 36.85887085 66.73423767 37.70428467 C66.71752518 38.58046448 66.70081268 39.45664429 66.68359375 40.359375 C66.6524221 41.71594208 66.6524221 41.71594208 66.62062073 43.09991455 C66.5553406 45.98320055 66.49634048 48.8665761 66.4375 51.75 C66.39429429 53.70704044 66.35067935 55.66407188 66.30664062 57.62109375 C66.19891265 62.41397213 66.09967909 67.20692042 66 72 C60.06 72 54.12 72 48 72 C47.98541748 70.6682373 47.97083496 69.33647461 47.95581055 67.96435547 C47.89771899 63.0104728 47.82048627 58.05703949 47.73754883 53.10351562 C47.70435062 50.9619884 47.67630286 48.82037476 47.65356445 46.67871094 C47.61992496 43.59532946 47.56760346 40.51273631 47.51171875 37.4296875 C47.50532883 36.47633514 47.4989389 35.52298279 47.49235535 34.54074097 C47.37759713 29.32013248 47.00368661 25.46951395 44 21 C38.35111594 17.42621621 33.43740658 17.59010959 27 19 C23.356276 20.47299481 22.29735425 21.51148944 20.25 24.875 C17.96944611 30.57638472 17.80607352 35.95676403 17.68359375 42.01953125 C17.66281265 42.87810226 17.64203156 43.73667328 17.62062073 44.6212616 C17.55547477 47.35159654 17.49640346 50.08202395 17.4375 52.8125 C17.3942815 54.66862918 17.35066616 56.52474916 17.30664062 58.38085938 C17.19908592 62.92047971 17.09975306 67.46017475 17 72 C11.06 72 5.12 72 -1 72 C-1.02255261 62.76002129 -1.04091601 53.52006072 -1.05181217 44.28006077 C-1.05704061 39.99000085 -1.06413753 35.69996067 -1.07543945 31.40991211 C-1.08626975 27.273206 -1.09227714 23.13651892 -1.09487724 18.99979973 C-1.09673124 17.41807696 -1.10035136 15.83635529 -1.10573006 14.25464058 C-1.1129424 12.04677162 -1.11399086 9.83898227 -1.11352539 7.63110352 C-1.115746 6.37201675 -1.11796661 5.11292999 -1.12025452 3.81568909 C-1 1 -1 1 0 0 Z " fill="#0E85C4" transform="translate(472,108)"/>
<path d="M0 0 C0.86915039 0.52021729 1.73830078 1.04043457 2.63378906 1.57641602 C3.63861328 2.16656494 4.6434375 2.75671387 5.67871094 3.36474609 C6.74154297 4.01338623 7.804375 4.66202637 8.89941406 5.33032227 C10.57100586 6.32358521 10.57100586 6.32358521 12.27636719 7.33691406 C15.28149656 9.12421097 18.27250279 10.93394429 21.26098633 12.74890137 C23.84789857 14.3159314 26.44299918 15.86914859 29.03790283 17.42289734 C32.24523526 19.34458023 35.4481048 21.27362528 38.64941406 23.20532227 C39.26522339 23.57680389 39.88103271 23.94828552 40.51550293 24.33102417 C42.26019841 25.38584953 44.00175544 26.44586068 45.74316406 27.50610352 C46.74025391 28.11236572 47.73734375 28.71862793 48.76464844 29.34326172 C51.14941406 30.89282227 51.14941406 30.89282227 53.14941406 32.89282227 C53.04833984 35.3293457 53.04833984 35.3293457 52.14941406 37.89282227 C50.25439453 39.51098633 50.25439453 39.51098633 47.76660156 40.90844727 C46.39797974 41.69481567 46.39797974 41.69481567 45.00170898 42.49707031 C44.01920166 43.04016846 43.03669434 43.5832666 42.02441406 44.14282227 C39.99681935 45.2999347 37.96947609 46.45748787 35.94238281 47.61547852 C34.94770996 48.17638184 33.95303711 48.73728516 32.92822266 49.31518555 C29.35897312 51.34158605 25.84492494 53.45037184 22.33691406 55.58032227 C21.16270547 56.28259779 19.98822529 56.98441939 18.81347656 57.68579102 C16.10432203 59.30845394 13.41812971 60.96523156 10.73535156 62.63110352 C9.22770592 63.55194967 7.71989642 64.47252762 6.21191406 65.39282227 C5.52572998 65.8268335 4.8395459 66.26084473 4.13256836 66.70800781 C-0.61525286 69.57976222 -4.25171293 70.89282227 -9.85058594 70.89282227 C-12.48544648 69.85218848 -14.43980215 68.8809219 -16.78808594 67.39282227 C-17.44413818 66.9998999 -18.10019043 66.60697754 -18.77612305 66.20214844 C-20.2745654 65.30213475 -21.76746618 64.39285522 -23.25585938 63.47631836 C-26.21748467 61.66891323 -29.20769974 59.91482193 -32.20214844 58.16235352 C-34.43973917 56.84438083 -36.67671857 55.52536971 -38.91308594 54.20532227 C-39.98357178 53.57625977 -41.05405762 52.94719727 -42.15698242 52.29907227 C-57.00785142 43.42102583 -57.00785142 43.42102583 -58.85058594 37.89282227 C-59.39771705 32.0932325 -58.41267891 29.44898769 -54.85058594 24.89282227 C-52.19824219 22.93579102 -52.19824219 22.93579102 -48.91308594 21.08032227 C-47.58952376 20.32624581 -46.26667639 19.57091408 -44.94433594 18.81469727 C-43.78224609 18.15630859 -43.78224609 18.15630859 -42.59667969 17.48461914 C-39.90654238 15.9252579 -37.24840604 14.31886984 -34.59620667 12.69596863 C-32.02502514 11.12433002 -29.4448967 9.56770761 -26.86398315 8.01211548 C-25.57063079 7.22864261 -24.2806303 6.43960773 -22.99417114 5.64486694 C-21.15520256 4.51134823 -19.30374023 3.40136227 -17.44824219 2.29516602 C-16.3706665 1.6402417 -15.29309082 0.98531738 -14.18286133 0.31054688 C-9.20160974 -1.80873864 -5.16888996 -2.00761528 0 0 Z " fill="#0F8DC8" transform="translate(70.8505859375,100.107177734375)"/>
<path d="M0 0 C0.89638184 0.52658203 1.79276367 1.05316406 2.71630859 1.59570312 C4.59325171 2.70121442 6.46691953 3.81230388 8.33740234 4.92871094 C11.1790429 6.6199666 14.03479071 8.28488149 16.89453125 9.9453125 C18.70111013 11.00420357 20.50712098 12.06406449 22.3125 13.125 C23.15917236 13.61661621 24.00584473 14.10823242 24.87817383 14.61474609 C25.66345459 15.08219238 26.44873535 15.54963867 27.2578125 16.03125 C28.29059326 16.63936523 28.29059326 16.63936523 29.34423828 17.25976562 C33.4777542 20.32130484 34.57247321 23.39649698 35.3671875 28.4296875 C35.0531875 32.26594839 33.68328832 35.35117695 30.71337891 37.88037109 C28.87022649 39.1295317 26.99096698 40.26208494 25.0625 41.375 C24.35963867 41.79692627 23.65677734 42.21885254 22.93261719 42.65356445 C20.69296959 43.99274285 18.44112139 45.30950053 16.1875 46.625 C14.71551522 47.49763506 13.24415353 48.37132207 11.7734375 49.24609375 C8.91477304 50.9432755 6.04560009 52.62036687 3.16796875 54.28515625 C0.67028063 55.73583068 -1.78024251 57.23037247 -4.19921875 58.80859375 C-5.20597656 59.44925781 -6.21273437 60.08992188 -7.25 60.75 C-8.09433594 61.30945313 -8.93867188 61.86890625 -9.80859375 62.4453125 C-15.36098096 64.62583387 -20.18271428 64.72794819 -25.73120117 62.40087891 C-28.95964909 60.66553309 -32.07273461 58.80688118 -35.1875 56.875 C-36.90659247 55.84391211 -38.6256871 54.81282773 -40.34506226 53.7822113 C-42.07148204 52.74228272 -43.79136265 51.69227421 -45.50976562 50.63916016 C-48.54779047 48.78643211 -51.60302861 46.96904153 -54.671875 45.16796875 C-56.42744215 44.13342116 -58.18267208 43.09830101 -59.9375 42.0625 C-60.72302246 41.5994043 -61.50854492 41.13630859 -62.31787109 40.65917969 C-66.06892804 38.41000919 -69.7630698 36.07598094 -73.3671875 33.59765625 C-74.02960449 33.147854 -74.69202148 32.69805176 -75.37451172 32.23461914 C-76.8125 30.625 -76.8125 30.625 -77.29125977 28.12548828 C-76.8125 25.625 -76.8125 25.625 -75.06274414 24.02270508 C-74.24926514 23.56790771 -73.43578613 23.11311035 -72.59765625 22.64453125 C-71.69217041 22.12536133 -70.78668457 21.60619141 -69.85375977 21.07128906 C-68.87076904 20.53213867 -67.88777832 19.99298828 -66.875 19.4375 C-64.84373743 18.28257419 -62.81248756 17.12762605 -60.78125 15.97265625 C-59.76804688 15.40562988 -58.75484375 14.83860352 -57.7109375 14.25439453 C-53.73184097 12.0174934 -49.80255922 9.70076022 -45.875 7.375 C-44.86058838 6.78017822 -44.86058838 6.78017822 -43.82568359 6.17333984 C-40.38931461 4.15834406 -36.97006917 2.11920967 -33.5703125 0.04296875 C-32.88573975 -0.3737207 -32.20116699 -0.79041016 -31.49584961 -1.21972656 C-30.20479652 -2.00746636 -28.91635298 -2.79950601 -27.63110352 -3.59667969 C-17.36916723 -9.85294203 -9.61642996 -5.77095511 0 0 Z " fill="#022838" transform="translate(233.8125,107.375)"/>
<path d="M0 0 C2.41333008 1.12133789 2.41333008 1.12133789 5.01953125 2.59765625 C5.98592529 3.14172119 6.95231934 3.68578613 7.94799805 4.24633789 C8.95515869 4.82504639 9.96231934 5.40375488 11 6 C11.98846924 6.56388428 12.97693848 7.12776855 13.99536133 7.70874023 C17.04626173 9.45956492 20.08673253 11.22735478 23.125 13 C24.14464844 13.59039062 25.16429687 14.18078125 26.21484375 14.7890625 C44.09093325 25.20721992 44.09093325 25.20721992 47 30 C47.3742218 33.01113892 47.3742218 33.01113892 47.37231445 36.57275391 C47.37596512 37.22361465 47.37961578 37.8744754 47.38337708 38.5450592 C47.3914613 40.68916179 47.37789413 42.83250369 47.36328125 44.9765625 C47.36276251 46.46821085 47.36328075 47.95985989 47.36479187 49.45150757 C47.36470225 52.57357014 47.3542918 55.69537393 47.33618164 58.81738281 C47.31345527 62.82364526 47.31295849 66.829531 47.31969929 70.83584023 C47.32303613 73.91386274 47.31641527 76.99179898 47.30657005 80.06980515 C47.30271577 81.54742354 47.30157078 83.02505153 47.3031559 84.5026741 C47.30352572 86.56398162 47.29093182 88.62480083 47.2746582 90.68603516 C47.27005081 91.85977692 47.26544342 93.03351868 47.26069641 94.24282837 C47 97 47 97 45 99 C41.33653051 98.64043796 38.53488357 97.41732097 35.33203125 95.6640625 C34.44765381 95.18227539 33.56327637 94.70048828 32.65209961 94.20410156 C31.71503174 93.68299805 30.77796387 93.16189453 29.8125 92.625 C28.35179077 91.8201416 28.35179077 91.8201416 26.86157227 90.99902344 C18.42966557 86.31592939 10.18988459 81.35798649 2.01464844 76.24316406 C0.05935284 75.03662441 -1.9134828 73.86789988 -3.8984375 72.7109375 C-4.80033813 72.17871582 -4.80033813 72.17871582 -5.72045898 71.63574219 C-7.30841471 70.70098651 -8.9020174 69.77584176 -10.49609375 68.8515625 C-13.94527536 66.30099762 -15.74165514 63.71460172 -16.38768005 59.42701721 C-16.39308304 58.51467819 -16.39848602 57.60233917 -16.40405273 56.66235352 C-16.41673691 55.62099747 -16.42942108 54.57964142 -16.44248962 53.50672913 C-16.43955399 52.39204758 -16.43661835 51.27736603 -16.43359375 50.12890625 C-16.4388356 48.97382065 -16.44407745 47.81873505 -16.44947815 46.62864685 C-16.45589481 44.18855594 -16.454566 41.74843408 -16.44604492 39.30834961 C-16.43753845 35.5793537 -16.46629841 31.85189138 -16.49804688 28.12304688 C-16.4996591 25.75000046 -16.49908095 23.37695133 -16.49609375 21.00390625 C-16.50732773 19.89124893 -16.51856171 18.77859161 -16.53013611 17.63221741 C-16.46226824 10.07556947 -15.40883924 6.65232776 -10.25 1.125 C-6.75098258 -0.62450871 -3.7554186 -0.77839297 0 0 Z " fill="#012737" transform="translate(88,21)"/>
<path d="M0 0 C2.19455586 1.7840634 4.03932462 3.33255549 5.31640625 5.88671875 C5.43741933 7.6054677 5.49640108 9.32874967 5.52514648 11.05151367 C5.55408241 12.66910835 5.55408241 12.66910835 5.58360291 14.31938171 C5.64129181 19.26342511 5.69063678 24.2073211 5.72143555 29.15161133 C5.7430097 31.75786595 5.77710491 34.36404825 5.82397461 36.9699707 C5.89096208 40.72770557 5.91843662 44.48393978 5.9375 48.2421875 C5.96533066 49.40284225 5.99316132 50.56349701 6.02183533 51.75932312 C6.00857001 56.99065062 5.98237626 60.82887541 2.58032227 64.98510742 C0.09676491 67.38640847 -2.4754211 69.31870255 -5.52734375 70.95703125 C-6.43355469 71.45468994 -7.33976562 71.95234863 -8.2734375 72.46508789 C-9.71396484 73.23067017 -9.71396484 73.23067017 -11.18359375 74.01171875 C-13.23681856 75.13593861 -15.28887126 76.26230135 -17.33984375 77.390625 C-18.3865625 77.96312988 -19.43328125 78.53563477 -20.51171875 79.12548828 C-25.62839708 81.96659954 -30.65616403 84.95380836 -35.68359375 87.94921875 C-38.26236054 89.4836496 -40.84129879 91.01771558 -43.42333984 92.54663086 C-44.87762169 93.40886385 -46.3287511 94.27644799 -47.77587891 95.15063477 C-52.41878687 97.90762456 -52.41878687 97.90762456 -55.05859375 97.69921875 C-56.68359375 96.88671875 -56.68359375 96.88671875 -57.68359375 95.88671875 C-57.79345038 93.89398589 -57.83271422 91.89733386 -57.84472656 89.90161133 C-57.85913788 87.97875053 -57.85913788 87.97875053 -57.87384033 86.01704407 C-57.87868946 84.60511451 -57.88296801 83.1931829 -57.88671875 81.78125 C-57.89246962 80.33973691 -57.89822736 78.89822385 -57.9039917 77.45671082 C-57.91451454 74.42776126 -57.92034792 71.39883832 -57.92382812 68.36987305 C-57.92929761 64.49727291 -57.95328659 60.6250271 -57.98180008 56.75253773 C-58.00047485 53.7713063 -58.00563475 50.7901591 -58.007164 47.80887413 C-58.01018316 46.38198611 -58.0181868 44.95509932 -58.03134918 43.52826881 C-58.04849923 41.52518347 -58.04467173 39.52195223 -58.04003906 37.51879883 C-58.04550751 35.81123161 -58.04550751 35.81123161 -58.05108643 34.06916809 C-57.5523475 29.75013956 -56.18613612 26.25984045 -52.94042969 23.29370117 C-52.27301758 22.88482666 -51.60560547 22.47595215 -50.91796875 22.0546875 C-50.12197266 21.5601709 -49.32597656 21.0656543 -48.50585938 20.55615234 C-47.57451172 20.00523926 -46.64316406 19.45432617 -45.68359375 18.88671875 C-44.57177734 18.2210791 -43.45996094 17.55543945 -42.31445312 16.86962891 C-38.53563516 14.62058412 -34.73560345 12.40875123 -30.93359375 10.19921875 C-28.97662999 9.05834126 -27.02011882 7.91669067 -25.06365967 6.77494812 C-23.29999286 5.7462772 -21.53528161 4.71939758 -19.77050781 3.69262695 C-17.80394478 2.54214714 -15.84526511 1.37800636 -13.89746094 0.19604492 C-9.33181316 -2.50417222 -4.65917211 -3.08089107 0 0 Z " fill="#0F8AC6" transform="translate(205.68359375,22.11328125)"/>
<path d="M0 0 C1.82683434 1.82683434 1.15634906 4.71421884 1.17700195 7.16870117 C1.18685875 8.13469742 1.18685875 8.13469742 1.19691467 9.12020874 C1.21669605 11.26112983 1.22832371 13.40198047 1.23828125 15.54296875 C1.24235678 16.27374445 1.2464323 17.00452015 1.25063133 17.75744057 C1.27151732 21.62873682 1.28580539 25.49999742 1.29516602 29.37133789 C1.30620803 33.36510409 1.3405743 37.35830964 1.38033772 41.35187817 C1.40653192 44.42575593 1.41486052 47.49950106 1.41844749 50.57348061 C1.42330992 52.04504475 1.43491424 53.5166031 1.45348549 54.98805809 C1.47792815 57.05392587 1.47690327 59.11835698 1.4699707 61.18432617 C1.47583694 62.3582341 1.48170319 63.53214203 1.48774719 64.74162292 C0.81081884 69.26381775 -1.18083567 72.55478753 -4.77319336 75.40869141 C-5.37268799 75.71983887 -5.97218262 76.03098633 -6.58984375 76.3515625 C-7.28190918 76.72216797 -7.97397461 77.09277344 -8.68701172 77.47460938 C-9.42967285 77.85423828 -10.17233398 78.23386719 -10.9375 78.625 C-12.54388611 79.48004961 -14.14931379 80.33690164 -15.75390625 81.1953125 C-16.60098145 81.64422852 -17.44805664 82.09314453 -18.32080078 82.55566406 C-23.058791 85.10987858 -27.71218559 87.81174268 -32.375 90.5 C-34.13216871 91.51153583 -35.88994026 92.5220255 -37.6484375 93.53125 C-38.39270996 93.95986328 -39.13698242 94.38847656 -39.90380859 94.83007812 C-45.43279569 97.91590461 -48.75320789 98.55054304 -55 97 C-58.57487804 94.79422419 -60.42675744 92.85206598 -62 89 C-62.26742554 86.62992859 -62.26742554 86.62992859 -62.29052734 83.9753418 C-62.30328705 82.97717941 -62.31604675 81.97901703 -62.32919312 80.9506073 C-62.33141876 79.87764908 -62.33364441 78.80469086 -62.3359375 77.69921875 C-62.3425943 76.58948196 -62.3492511 75.47974518 -62.35610962 74.33638 C-62.36623273 71.98867449 -62.37092675 69.64094021 -62.37060547 67.29321289 C-62.37497104 63.7112652 -62.41127514 60.13055723 -62.44921875 56.54882812 C-62.45508854 54.2656292 -62.45905685 51.98242444 -62.4609375 49.69921875 C-62.47530853 48.63233322 -62.48967957 47.56544769 -62.50448608 46.4662323 C-62.46557147 40.09382029 -61.90142001 36.12582659 -58 31 C-55.85620117 29.24658203 -55.85620117 29.24658203 -53.54296875 28.0078125 C-52.25664551 27.29890869 -52.25664551 27.29890869 -50.94433594 26.57568359 C-50.03458008 26.09695801 -49.12482422 25.61823242 -48.1875 25.125 C-46.27921639 24.07945905 -44.37166743 23.03257617 -42.46484375 21.984375 C-41.5301123 21.47712891 -40.59538086 20.96988281 -39.63232422 20.44726562 C-36.11472798 18.51327281 -32.67756144 16.46316286 -29.25 14.375 C-28.07043021 13.66516895 -26.89074202 12.9555346 -25.7109375 12.24609375 C-23.73393485 11.05311202 -21.76151355 9.85351928 -19.79394531 8.64501953 C-17.49331782 7.23294033 -15.18469182 5.83469045 -12.875 4.4375 C-12.16375977 3.99519043 -11.45251953 3.55288086 -10.71972656 3.09716797 C-4.37223681 -0.7177068 -4.37223681 -0.7177068 0 0 Z " fill="#022939" transform="translate(134,149)"/>
<path d="M0 0 C4.32280187 0.31398332 7.45352251 2.21106039 11.12890625 4.39453125 C11.71192001 4.73818222 12.29493378 5.08183319 12.89561462 5.43589783 C14.78889931 6.55431561 16.67581373 7.68299269 18.5625 8.8125 C19.86689213 9.58741147 21.17158174 10.36182241 22.4765625 11.13574219 C25.08974688 12.68702026 27.70029206 14.24261394 30.30908203 15.80126953 C33.58998984 17.75949937 36.88440531 19.69379098 40.18359375 21.62109375 C41.95594332 22.66369854 43.72809472 23.70664032 45.5 24.75 C46.29865479 25.2138208 47.09730957 25.6776416 47.92016602 26.15551758 C52.69498443 28.99309118 57.43667051 31.87334103 60 37 C60.11092159 38.7296292 60.15918465 40.46344252 60.17700195 42.1965332 C60.19625481 43.82381096 60.19625481 43.82381096 60.21589661 45.48396301 C60.22328354 46.66101303 60.23067047 47.83806305 60.23828125 49.05078125 C60.246353 50.25687546 60.25442474 51.46296967 60.26274109 52.70561218 C60.276591 55.26197874 60.28730907 57.81836386 60.29516602 60.37475586 C60.31238335 64.28600054 60.35626376 68.19640122 60.40039062 72.10742188 C60.4105168 74.58853544 60.41903314 77.0696562 60.42578125 79.55078125 C60.44328934 80.72175858 60.46079742 81.8927359 60.47883606 83.09919739 C60.45707733 91.23804924 60.45707733 91.23804924 58.08276367 95.19604492 C54.31313297 98.46105504 51.45164865 99.57728586 46.31420898 99.44555664 C43.46542206 98.89707725 41.4337669 97.80077374 38.91015625 96.37109375 C37.94343994 95.82630371 36.97672363 95.28151367 35.98071289 94.72021484 C34.99707764 94.15254395 34.01344238 93.58487305 33 93 C32.08404053 92.47229004 31.16808105 91.94458008 30.22436523 91.40087891 C23.78405043 87.65523475 17.39228126 83.82685906 11 80 C10.32646484 79.60006836 9.65292969 79.20013672 8.95898438 78.78808594 C7.38259661 77.84909189 5.81565201 76.89428734 4.25 75.9375 C3.45078125 75.45152344 2.6515625 74.96554688 1.828125 74.46484375 C-0.34698024 72.72197096 -0.98946979 71.59854046 -2 69 C-2.25396729 65.98886108 -2.25396729 65.98886108 -2.25878906 62.42724609 C-2.2622937 61.77638535 -2.26579834 61.1255246 -2.26940918 60.4549408 C-2.27818749 58.31099681 -2.27239272 56.16738464 -2.265625 54.0234375 C-2.26697245 52.5317885 -2.26891365 51.04013993 -2.27142334 49.54849243 C-2.27436903 46.42649137 -2.27009365 43.30460491 -2.26074219 40.18261719 C-2.24932809 36.17637234 -2.25592286 32.17039489 -2.26788712 28.16415977 C-2.27510388 25.08615085 -2.272819 22.00820566 -2.26763153 18.93019485 C-2.26629554 17.45257155 -2.26794098 15.97494249 -2.27259064 14.4973259 C-2.27765512 12.43604877 -2.26994817 10.37520926 -2.25878906 8.31396484 C-2.25640228 6.5533522 -2.25640228 6.5533522 -2.25396729 4.75717163 C-2 2 -2 2 0 0 Z " fill="#0E8AC6" transform="translate(151,148)"/>
<path d="M0 0 C1.21324699 -0.0049926 1.21324699 -0.0049926 2.45100403 -0.01008606 C4.17525666 -0.0151657 5.89951919 -0.01749407 7.6237793 -0.01733398 C10.21355526 -0.01948476 12.80287973 -0.03752754 15.39257812 -0.05664062 C31.87677729 -0.11364982 48.4219011 0.14360933 61.08203125 12.16796875 C67.79795024 20.53729927 69.03817558 29.67489764 68.08203125 40.16796875 C66.1860678 49.28779293 61.50031069 56.40527469 53.83203125 61.73046875 C40.11785235 69.30935709 25.23249549 68.4485329 10.08203125 68.16796875 C10.08203125 76.08796875 10.08203125 84.00796875 10.08203125 92.16796875 C3.81203125 92.16796875 -2.45796875 92.16796875 -8.91796875 92.16796875 C-8.94051853 80.32031362 -8.95888311 68.47267264 -8.96978092 56.62500095 C-8.97501006 51.12426013 -8.98210826 45.6235347 -8.9934082 40.12280273 C-9.004236 34.81900315 -9.01024535 29.5152184 -9.01284599 24.21140862 C-9.01470044 22.18311263 -9.01832142 20.15481749 -9.02369881 18.12652779 C-9.03090781 15.29600361 -9.03195975 12.46554157 -9.03149414 9.63500977 C-9.03508942 8.78768784 -9.03868469 7.94036591 -9.04238892 7.06736755 C-9.02821697 -0.84057927 -7.21079612 0.01025969 0 0 Z M10.08203125 17.16796875 C10.08203125 28.38796875 10.08203125 39.60796875 10.08203125 51.16796875 C13.54703125 51.20921875 17.01203125 51.25046875 20.58203125 51.29296875 C21.65775391 51.31117676 22.73347656 51.32938477 23.84179688 51.34814453 C32.37635368 51.39695842 39.25474825 50.81139068 45.671875 44.73046875 C49.2143355 40.80530476 49.53992168 36.61848303 49.38671875 31.51171875 C48.85683469 27.43568752 47.55262883 24.43524141 45.08203125 21.16796875 C37.97991015 16.37403701 31.44194956 16.69022748 23.08203125 16.91796875 C18.79203125 17.00046875 14.50203125 17.08296875 10.08203125 17.16796875 Z " fill="#0F85C0" transform="translate(297.91796875,87.83203125)"/>
<path d="M0 0 C0.69351563 -0.00386719 1.38703125 -0.00773437 2.1015625 -0.01171875 C7.24833354 -0.00166646 7.24833354 -0.00166646 8.375 1.125 C8.49790718 2.78144366 8.55283908 4.44298993 8.58032227 6.10375977 C8.60026749 7.16478409 8.62021271 8.22580841 8.64076233 9.31898499 C8.65747482 10.473134 8.67418732 11.62728302 8.69140625 12.81640625 C8.71218735 13.99138168 8.73296844 15.16635712 8.75437927 16.37693787 C8.82000124 20.14706324 8.8788183 23.91726082 8.9375 27.6875 C8.9806732 30.23633573 9.02428708 32.78516403 9.06835938 35.33398438 C9.17569545 41.59757892 9.2774379 47.86124601 9.375 54.125 C17.75467154 46.74773585 17.75467154 46.74773585 25.30859375 38.55078125 C35.02162973 26.95815329 35.02162973 26.95815329 43.06640625 26.10546875 C48.21766236 25.96195931 53.28299711 26.35258416 58.375 27.125 C54.67347669 35.23854186 47.19058715 41.44628626 40.9375 47.625 C40.20595703 48.35203125 39.47441406 49.0790625 38.72070312 49.828125 C36.94110176 51.59609499 35.15919082 53.36166378 33.375 55.125 C35.05858086 60.28935848 38.12509824 64.45192813 41.1875 68.875 C41.75557373 69.70249756 42.32364746 70.52999512 42.90893555 71.38256836 C47.52710972 78.04706596 52.38341823 84.50791377 57.41137695 90.86816406 C57.93175537 91.53170898 58.45213379 92.19525391 58.98828125 92.87890625 C59.45016846 93.45970947 59.91205566 94.0405127 60.38793945 94.63891602 C61.375 96.125 61.375 96.125 61.375 98.125 C43.73311399 100.02407136 43.73311399 100.02407136 38.46337891 97.04394531 C34.95815799 93.96092187 32.68615968 90.15848887 30.375 86.125 C29.11046248 84.04875428 27.80158468 82.10027109 26.375 80.125 C25.715 80.125 25.055 80.125 24.375 80.125 C24.148125 79.403125 23.92125 78.68125 23.6875 77.9375 C22.12668987 74.59290687 20.0718713 72.60896041 17.375 70.125 C16.22611717 71.24688559 15.08098863 72.37261684 13.9375 73.5 C13.29941406 74.12648438 12.66132812 74.75296875 12.00390625 75.3984375 C9.47724882 78.0765732 9.22570988 79.89550251 9.05859375 83.4765625 C9.02048584 84.24307129 8.98237793 85.00958008 8.94311523 85.79931641 C8.87846069 87.25990479 8.87846069 87.25990479 8.8125 88.75 C8.668125 91.84375 8.52375 94.9375 8.375 98.125 C2.105 98.125 -4.165 98.125 -10.625 98.125 C-10.625 66.115 -10.625 34.105 -10.625 1.125 C-7.03023628 -0.07325457 -3.73950601 -0.02108744 0 0 Z " fill="#03273A" transform="translate(695.625,81.875)"/>
<path d="M0 0 C7.94414626 5.70241186 12.53118039 12.6611915 15 22.125 C15.37668823 26.83360282 15.32559726 31.52937095 15.25 36.25 C12.76644959 37.49177521 11.11892378 37.37036681 8.34130859 37.36352539 C7.32040131 37.36344986 6.29949402 37.36337433 5.24765015 37.36329651 C3.58978989 37.35555458 3.58978989 37.35555458 1.8984375 37.34765625 C0.7692691 37.3462413 -0.35989929 37.34482635 -1.52328491 37.34336853 C-5.14054988 37.33775744 -8.75775364 37.32520303 -12.375 37.3125 C-14.82291577 37.30748643 -17.27083252 37.30292328 -19.71875 37.29882812 C-25.72918766 37.2877844 -31.73958946 37.27103544 -37.75 37.25 C-37.12405075 38.54702773 -36.49293364 39.84156237 -35.85961914 41.13500977 C-35.50871719 41.8561647 -35.15781525 42.57731964 -34.79627991 43.32032776 C-32.73176584 47.12794698 -29.6883502 48.71549232 -25.75 50.25 C-18.59905005 51.94808694 -12.34626142 51.52956712 -5.75 48.25 C-3.27112087 46.70585533 -1.05112069 45.06152055 1.25 43.25 C2.7858444 44.81877674 4.30331331 46.40556154 5.8125 48 C6.65941406 48.88171875 7.50632812 49.7634375 8.37890625 50.671875 C10.25 53.25 10.25 53.25 10.25390625 55.38671875 C7.19810078 61.05838882 0.06515348 64.16532234 -5.75 66.25 C-16.54185359 68.85177115 -27.64896778 67.76435385 -37.75 63.25 C-47.15892113 57.49313419 -53.01818364 49.87964507 -56.33984375 39.38671875 C-58.50204346 28.1226879 -56.47587218 17.51458051 -50.1875 8 C-37.88672083 -7.08936891 -16.20339258 -10.13389435 0 0 Z M-33.5625 13.5625 C-35.84523001 16.36699687 -37.43209392 18.8820178 -38.75 22.25 C-38.42 23.24 -38.09 24.23 -37.75 25.25 C-20.425 24.755 -20.425 24.755 -2.75 24.25 C-3.95936983 18.20315086 -5.76761814 14.95577044 -10.4375 10.9375 C-18.7340401 6.7109607 -26.41886278 7.68884273 -33.5625 13.5625 Z " fill="#1286C3" transform="translate(656.75,113.75)"/>
<path d="M0 0 C1.1748999 0.0002417 1.1748999 0.0002417 2.37353516 0.00048828 C10.99939342 0.16775845 18.7148462 2.34525084 26.375 6.375 C25.72080901 11.44498019 23.5203591 15.79490777 21.375 20.375 C18.2361622 19.88455659 15.70849213 19.09920364 12.75 17.875 C4.91692045 14.87478274 -2.71630223 14.73876741 -10.625 17.375 C-11.98118499 18.50034105 -11.98118499 18.50034105 -11.6875 21.4375 C-11.666875 22.406875 -11.64625 23.37625 -11.625 24.375 C-5.70009772 27.44717155 -0.11862311 28.97323128 6.375 30.25 C14.79217171 31.97521074 21.89149751 34.24766015 26.9375 41.6875 C29.33816184 47.84571951 29.20349595 52.87743264 26.875 59.0625 C23.35398839 66.19161538 16.63713334 69.81980494 9.375 72.375 C-3.78794443 75.66573611 -17.47735052 72.9181011 -29.32421875 66.91015625 C-31.625 65.375 -31.625 65.375 -32.625 62.375 C-31.41015625 59.67578125 -31.41015625 59.67578125 -29.6875 56.6875 C-29.12160156 55.69363281 -28.55570313 54.69976562 -27.97265625 53.67578125 C-27.52792969 52.91652344 -27.08320312 52.15726563 -26.625 51.375 C-23.25002674 52.47186631 -19.92747071 53.64191534 -16.625 54.9375 C-9.34410736 57.66267343 -0.8978356 59.02295779 6.4375 55.875 C7.406875 55.38 8.37625 54.885 9.375 54.375 C9.375 52.395 9.375 50.415 9.375 48.375 C2.00797885 45.32433926 -5.33460481 43.41306308 -13.16552734 42.03417969 C-19.64805957 40.76242551 -24.48962063 38.2933518 -28.5 32.8125 C-31.28255305 26.78363506 -31.46521578 20.9840911 -29.4375 14.6875 C-25.57038398 7.62001211 -19.88461313 3.83141184 -12.4375 1.28515625 C-8.18944369 0.27101986 -4.34826218 -0.00842505 0 0 Z " fill="#042637" transform="translate(884.625,107.625)"/>
<path d="M0 0 C0 5.61 0 11.22 0 17 C-1.85625 17.268125 -3.7125 17.53625 -5.625 17.8125 C-13.74711299 19.15738961 -13.74711299 19.15738961 -19.8125 24.375 C-22.28191689 29.83371102 -22.20049594 35.34899692 -22.31640625 41.23828125 C-22.33718735 42.11904831 -22.35796844 42.99981537 -22.37937927 43.90727234 C-22.44453937 46.70893879 -22.50360321 49.51069557 -22.5625 52.3125 C-22.60571715 54.21680606 -22.64933244 56.12110312 -22.69335938 58.02539062 C-22.80093233 62.68350268 -22.90025481 67.34168747 -23 72 C-29.27 72 -35.54 72 -42 72 C-42.02255261 62.76002129 -42.04091601 53.52006072 -42.05181217 44.28006077 C-42.05704061 39.99000085 -42.06413753 35.69996067 -42.07543945 31.40991211 C-42.08626975 27.273206 -42.09227714 23.13651892 -42.09487724 18.99979973 C-42.09673124 17.41807696 -42.10035136 15.83635529 -42.10573006 14.25464058 C-42.1129424 12.04677162 -42.11399086 9.83898227 -42.11352539 7.63110352 C-42.115746 6.37201675 -42.11796661 5.11292999 -42.12025452 3.81568909 C-42 1 -42 1 -41 0 C-38.30345146 -0.07319621 -35.63308542 -0.09242537 -32.9375 -0.0625 C-32.17888672 -0.05798828 -31.42027344 -0.05347656 -30.63867188 -0.04882812 C-28.75908129 -0.0370068 -26.87953101 -0.01907078 -25 0 C-23.25434889 3.21639654 -22.795563 5.32013404 -23 9 C-22.57589844 8.60167969 -22.15179687 8.20335938 -21.71484375 7.79296875 C-16.40924987 3.00044329 -7.38936339 -3.6946817 0 0 Z " fill="#022739" transform="translate(809,108)"/>
<path d="M0 0 C0 5.94 0 11.88 0 18 C-1.69125 18.103125 -3.3825 18.20625 -5.125 18.3125 C-9.71423729 18.74844809 -13.15699669 19.28177815 -17 22 C-22.10894141 28.35165689 -22.15888066 34.22199071 -22.31640625 42.01953125 C-22.33718735 42.87810226 -22.35796844 43.73667328 -22.37937927 44.6212616 C-22.44452523 47.35159654 -22.50359654 50.08202395 -22.5625 52.8125 C-22.6057185 54.66862918 -22.64933384 56.52474916 -22.69335938 58.38085938 C-22.80091408 62.92047971 -22.90024694 67.46017475 -23 72 C-28.94 72 -34.88 72 -41 72 C-41 48.57 -41 25.14 -41 1 C-35.39 1 -29.78 1 -24 1 C-23.34 3.31 -22.68 5.62 -22 8 C-21.41992188 7.59007813 -20.83984375 7.18015625 -20.2421875 6.7578125 C-13.11962021 1.84488655 -8.90777392 0 0 0 Z " fill="#1085C0" transform="translate(421,108)"/>
<path d="M0 0 C5.94 0 11.88 0 18 0 C18.02505615 1.9888623 18.0501123 3.97772461 18.07592773 6.02685547 C18.15973115 12.58875121 18.24800098 19.15057489 18.33933926 25.71236992 C18.39456799 29.6918445 18.4479879 33.67132644 18.49731445 37.65087891 C18.54495877 41.48939641 18.59730158 45.32782341 18.65294075 49.16623306 C18.67336401 50.63266886 18.69207715 52.09912947 18.70907402 53.56560898 C18.73311876 55.61528265 18.763173 57.66478482 18.79467773 59.71435547 C18.81799416 61.466418 18.81799416 61.466418 18.84178162 63.25387573 C18.81641289 65.96201406 18.81641289 65.96201406 20 68 C19.34 68 18.68 68 18 68 C18 68.99 18 69.98 18 71 C12.06 71 6.12 71 0 71 C-1.1428342 67.5714974 -1.08185906 65.03175028 -1.02172852 61.41723633 C-1.01212097 60.75355545 -1.00251343 60.08987457 -0.99261475 59.40608215 C-0.95966059 57.21462271 -0.91931483 55.02336486 -0.87890625 52.83203125 C-0.85460162 51.31174936 -0.83075823 49.79146002 -0.80735779 48.27116394 C-0.74455095 44.27128624 -0.67547471 40.27154035 -0.60510254 36.27178955 C-0.53438836 32.1897176 -0.46958986 28.10755225 -0.40429688 24.02539062 C-0.27532834 16.01682163 -0.1391914 8.00839785 0 0 Z " fill="#002638" transform="translate(822,109)"/>
<path d="M0 0 C5.94 0 11.88 0 18 0 C18 23.43 18 46.86 18 71 C12.06 71 6.12 71 0 71 C-1.1428342 67.5714974 -1.08185906 65.03175028 -1.02172852 61.41723633 C-1.01212097 60.75355545 -1.00251343 60.08987457 -0.99261475 59.40608215 C-0.95966059 57.21462271 -0.91931483 55.02336486 -0.87890625 52.83203125 C-0.85460162 51.31174936 -0.83075823 49.79146002 -0.80735779 48.27116394 C-0.74455095 44.27128624 -0.67547471 40.27154035 -0.60510254 36.27178955 C-0.53438836 32.1897176 -0.46958986 28.10755225 -0.40429688 24.02539062 C-0.27532834 16.01682163 -0.1391914 8.00839785 0 0 Z " fill="#0B84C3" transform="translate(434,109)"/>
<path d="M0 0 C3.2561101 1.89446406 5.3487671 3.30400843 6.73046875 6.90234375 C7.49776352 10.86036925 7.15298259 12.69403482 5.3125 16.375 C2.25571386 19.84486535 0.66715896 20.78254448 -3.875 21.375 C-7.87153796 20.89541545 -9.90459308 19.53260567 -13 17 C-15.35062814 13.794598 -15.39807915 10.90117562 -15 7 C-13.75436665 4.25960663 -12.68864555 2.5356132 -10.3125 0.6875 C-6.80656153 -0.35480603 -3.58068095 -0.65290727 0 0 Z " fill="#1085C3" transform="translate(447,79)"/>
<path d="M0 0 C2.8100346 1.79363911 4.50940468 3.01880935 6 6 C6.42071592 9.05920574 6.48514117 11.9467746 6 15 C3.81840855 17.75569447 2.12822506 19.43588747 -1 21 C-4.79703187 21.17157511 -8.49708155 21.02377702 -11.703125 18.83984375 C-14.19319727 16.15657622 -14.99546739 14.03229483 -15.5 10.4375 C-14.87177317 6.11844056 -13.80102292 3.40079561 -10.3125 0.6875 C-6.84767407 -0.34258338 -3.54883321 -0.5914722 0 0 Z " fill="#02273A" transform="translate(835,79)"/>
<path d="M0 0 C-4.95 2.475 -4.95 2.475 -10 5 C-9.34 5.66 -8.68 6.32 -8 7 C-8 7.66 -8 8.32 -8 9 C-7.67 10.32 -7.34 11.64 -7 13 C-3.04 12.34 0.92 11.68 5 11 C5.495 11.99 5.495 11.99 6 13 C7.6396875 13.37125 7.6396875 13.37125 9.3125 13.75 C13 15 13 15 15.5 17.875 C17 21 17 21 16.75 23.375 C16.5025 23.91125 16.255 24.4475 16 25 C15.443125 23.88625 14.88625 22.7725 14.3125 21.625 C12.8990976 19.18725022 12.16545954 18.10571026 9.75 16.5625 C3.04655814 15.19134144 -2.0100728 15.54427277 -8 19 C-11.73305651 23.61720148 -13.07938642 27.38874278 -13.20532227 33.21777344 C-13.22526749 34.03832214 -13.24521271 34.85887085 -13.26576233 35.70428467 C-13.28247482 36.58046448 -13.29918732 37.45664429 -13.31640625 38.359375 C-13.33718735 39.26375305 -13.35796844 40.1681311 -13.37937927 41.09991455 C-13.4446594 43.98320055 -13.50365952 46.8665761 -13.5625 49.75 C-13.60570571 51.70704044 -13.64932065 53.66407188 -13.69335938 55.62109375 C-13.80108735 60.41397213 -13.90032091 65.20692042 -14 70 C-19.94 70 -25.88 70 -32 70 C-32.02505615 68.65776367 -32.0501123 67.31552734 -32.07592773 65.93261719 C-32.1700979 60.95286508 -32.27029529 55.97324933 -32.37231445 50.99365234 C-32.41562691 48.83841135 -32.45730463 46.68313686 -32.49731445 44.52783203 C-32.55510618 41.42991033 -32.61877523 38.33215666 -32.68359375 35.234375 C-32.70030624 34.27070007 -32.71701874 33.30702515 -32.73423767 32.31414795 C-32.75418289 31.41351624 -32.77412811 30.51288452 -32.79467773 29.58496094 C-32.81022202 28.79442322 -32.8257663 28.0038855 -32.84178162 27.18939209 C-32.99857453 25.01972541 -33.40615681 23.08863467 -34 21 C-33.01 21.33 -32.02 21.66 -31 22 C-31 37.51 -31 53.02 -31 69 C-25.72 69 -20.44 69 -15 69 C-15.04600342 67.69329346 -15.09200684 66.38658691 -15.1394043 65.0402832 C-15.30614594 60.18589367 -15.45219394 55.33106271 -15.59204102 50.47583008 C-15.65541556 48.37571754 -15.72437923 46.27576584 -15.79907227 44.17602539 C-15.90554943 41.15536121 -15.99182121 38.1346864 -16.07421875 35.11328125 C-16.11157639 34.17664139 -16.14893402 33.24000153 -16.18742371 32.27497864 C-16.30149259 27.3142446 -16.24347938 24.05156909 -13 20 C-13.99 19.67 -14.98 19.34 -16 19 C-15.6289901 6.68921684 -15.6289901 6.68921684 -11.78125 2.69921875 C-5.26464346 -1.31616087 -5.26464346 -1.31616087 0 0 Z " fill="#1E84B6" transform="translate(552,110)"/>
<path d="M0 0 C5.94 0 11.88 0 18 0 C18 20.13 18 40.26 18 61 C17.67 61 17.34 61 17 61 C17 41.86 17 22.72 17 3 C16.34 3 15.68 3 15 3 C15 2.34 15 1.68 15 1 C13.56163249 1.11458693 12.12429034 1.24209116 10.6875 1.375 C9.48673828 1.47941406 9.48673828 1.47941406 8.26171875 1.5859375 C5.72775559 1.89564426 5.72775559 1.89564426 3 4 C2.52105041 6.82673424 2.52105041 6.82673424 2.56762695 10.19384766 C2.54783279 11.49504547 2.52803864 12.79624329 2.50764465 14.13687134 C2.50087433 15.56260026 2.49442752 16.98833075 2.48828125 18.4140625 C2.47144175 19.86853565 2.4532925 21.32299417 2.43388367 22.7774353 C2.38629769 26.60786369 2.35654436 30.43823284 2.33044434 34.26885986 C2.30068185 38.17675482 2.25413687 42.08444542 2.20898438 45.9921875 C2.12285365 53.66135714 2.05555229 61.33054147 2 69 C4.29239061 68.91321237 6.5839807 68.80504727 8.875 68.6875 C10.15117188 68.62949219 11.42734375 68.57148438 12.7421875 68.51171875 C14.35480469 68.25841797 14.35480469 68.25841797 16 68 C16.66 67.01 17.32 66.02 18 65 C18.66 65.33 19.32 65.66 20 66 C20 66.66 20 67.32 20 68 C19.34 68 18.68 68 18 68 C18 68.99 18 69.98 18 71 C12.06 71 6.12 71 0 71 C-1.1428342 67.5714974 -1.08185906 65.03175028 -1.02172852 61.41723633 C-1.01212097 60.75355545 -1.00251343 60.08987457 -0.99261475 59.40608215 C-0.95966059 57.21462271 -0.91931483 55.02336486 -0.87890625 52.83203125 C-0.85460162 51.31174936 -0.83075823 49.79146002 -0.80735779 48.27116394 C-0.74455095 44.27128624 -0.67547471 40.27154035 -0.60510254 36.27178955 C-0.53438836 32.1897176 -0.46958986 28.10755225 -0.40429688 24.02539062 C-0.27532834 16.01682163 -0.1391914 8.00839785 0 0 Z " fill="#092330" transform="translate(822,109)"/>
<path d="M0 0 C2.86688248 0.09096556 5.70300515 0.23767988 8.5625 0.4375 C9.36880859 0.48970703 10.17511719 0.54191406 11.00585938 0.59570312 C13.00421738 0.72577376 15.00215386 0.86229056 17 1 C17 3.31 17 5.62 17 8 C16.67 8 16.34 8 16 8 C16 6.02 16 4.04 16 2 C11.05 2 6.1 2 1 2 C1 24.77 1 47.54 1 71 C5.62 71 10.24 71 15 71 C14.98952637 69.8855249 14.97905273 68.7710498 14.96826172 67.62280273 C14.9319021 63.46495815 14.90904168 59.30712747 14.89013672 55.14916992 C14.8801154 53.35389844 14.86649467 51.55864312 14.84912109 49.76342773 C14.82470191 47.17427565 14.81347802 44.58534049 14.8046875 41.99609375 C14.79436493 41.20101913 14.78404236 40.40594452 14.77340698 39.58677673 C14.7724311 34.67537248 15.43293229 30.6605353 17 26 C17.66 26 18.32 26 19 26 C18.84152588 26.96494385 18.68305176 27.9298877 18.51977539 28.92407227 C17.88994755 33.35062636 17.77494342 37.74944423 17.68359375 42.21484375 C17.66281265 43.07058487 17.64203156 43.92632599 17.62062073 44.80799866 C17.55570046 47.51775776 17.49651022 50.2276064 17.4375 52.9375 C17.39425995 54.78451414 17.35064399 56.63151952 17.30664062 58.47851562 C17.19937759 62.98558704 17.09987811 67.49273479 17 72 C11.06 72 5.12 72 -1 72 C-1.02255261 62.76002129 -1.04091601 53.52006072 -1.05181217 44.28006077 C-1.05704061 39.99000085 -1.06413753 35.69996067 -1.07543945 31.40991211 C-1.08626975 27.273206 -1.09227714 23.13651892 -1.09487724 18.99979973 C-1.09673124 17.41807696 -1.10035136 15.83635529 -1.10573006 14.25464058 C-1.1129424 12.04677162 -1.11399086 9.83898227 -1.11352539 7.63110352 C-1.115746 6.37201675 -1.11796661 5.11292999 -1.12025452 3.81568909 C-1 1 -1 1 0 0 Z " fill="#2384B1" transform="translate(472,108)"/>
<path d="M0 0 C2.46465499 2.08516677 3.85687635 3.30772466 4.52139282 6.52192688 C4.5306076 7.46900009 4.53982239 8.4160733 4.54931641 9.3918457 C4.56838043 10.47009109 4.58744446 11.54833649 4.60708618 12.65925598 C4.60526337 13.81970932 4.60344055 14.98016266 4.6015625 16.17578125 C4.61013275 17.37430222 4.618703 18.57282318 4.62753296 19.80766296 C4.63901955 22.34367344 4.64002001 24.87974982 4.63134766 27.41577148 C4.62503975 31.28809802 4.67189439 35.15734977 4.72265625 39.02929688 C4.72720367 41.49478782 4.72860856 43.96028696 4.7265625 46.42578125 C4.74498199 47.5801619 4.76340149 48.73454254 4.78237915 49.92390442 C4.72262624 55.14107772 4.64393079 58.95574655 1.24658203 63.09057617 C-1.18752295 65.45194551 -3.72250799 67.43603544 -6.671875 69.125 C-7.50074219 69.60324219 -8.32960937 70.08148438 -9.18359375 70.57421875 C-10.03050781 71.04472656 -10.87742188 71.51523438 -11.75 72 C-12.61238281 72.50144531 -13.47476563 73.00289063 -14.36328125 73.51953125 C-19.06285929 76.18924459 -19.06285929 76.18924459 -21 77 C-21.66 76.67 -22.32 76.34 -23 76 C-20.6408035 72.1990723 -18.11462148 70.67943734 -14 69 C-12.68 69 -11.36 69 -10 69 C-10.33 68.01 -10.66 67.02 -11 66 C-8.03 65.01 -8.03 65.01 -5 64 C-5.33 62.02 -5.66 60.04 -6 58 C-5.030625 57.87625 -4.06125 57.7525 -3.0625 57.625 C-2.051875 57.41875 -1.04125 57.2125 0 57 C1.21966168 54.56067664 1.12689791 52.98855902 1.12939453 50.26245117 C1.13254669 49.27770309 1.13569885 48.29295502 1.13894653 47.27836609 C1.1369223 46.21068497 1.13489807 45.14300385 1.1328125 44.04296875 C1.13376923 42.94785477 1.13472595 41.85274078 1.13571167 40.72444153 C1.13639323 38.40345197 1.13454063 36.08246052 1.13037109 33.76147461 C1.12503785 30.21268403 1.13030899 26.66402091 1.13671875 23.11523438 C1.13605766 20.86197889 1.13477587 18.60872348 1.1328125 16.35546875 C1.13483673 15.29386032 1.13686096 14.23225189 1.13894653 13.13847351 C1.13579437 12.14426895 1.13264221 11.15006439 1.12939453 10.12573242 C1.12859894 9.25462326 1.12780334 8.3835141 1.12698364 7.48600769 C0.99520601 4.90614624 0.56802563 2.51689377 0 0 Z " fill="#2880AA" transform="translate(207,24)"/>
<path d="M0 0 C0.66 0 1.32 0 2 0 C2 16.5 2 33 2 50 C-3.94 50 -9.88 50 -16 50 C-16 35.48 -16 20.96 -16 6 C-15.34 6 -14.68 6 -14 6 C-13.67 19.86 -13.34 33.72 -13 48 C-9.04 48 -5.08 48 -1 48 C-0.67 32.16 -0.34 16.32 0 0 Z " fill="#2781AB" transform="translate(585,130)"/>
<path d="M0 0 C5.94 0 11.88 0 18 0 C18 23.43 18 46.86 18 71 C12.06 71 6.12 71 0 71 C-1.1428342 67.5714974 -1.08185906 65.03175028 -1.02172852 61.41723633 C-1.01212097 60.75355545 -1.00251343 60.08987457 -0.99261475 59.40608215 C-0.95966059 57.21462271 -0.91931483 55.02336486 -0.87890625 52.83203125 C-0.85460162 51.31174936 -0.83075823 49.79146002 -0.80735779 48.27116394 C-0.74455095 44.27128624 -0.67547471 40.27154035 -0.60510254 36.27178955 C-0.53438836 32.1897176 -0.46958986 28.10755225 -0.40429688 24.02539062 C-0.27532834 16.01682163 -0.1391914 8.00839785 0 0 Z M1 3 C0.90582227 5.08619022 0.88257122 7.17560477 0.88647461 9.26391602 C0.88632858 9.91755127 0.88618256 10.57118652 0.8860321 11.24462891 C0.88673117 13.41442128 0.89452322 15.58412879 0.90234375 17.75390625 C0.90420795 19.25463311 0.90563184 20.75536057 0.90663147 22.25608826 C0.91045648 26.21318226 0.9202866 30.17023978 0.93133545 34.12731934 C0.94154994 38.16234849 0.94612917 42.19738353 0.95117188 46.23242188 C0.9619089 54.15496656 0.97950555 62.07747454 1 70 C6.28 70 11.56 70 17 70 C17.02255338 61.28155659 17.04091645 52.56313241 17.05181217 43.84466648 C17.05704041 39.79674258 17.06413699 35.74883959 17.07543945 31.70092773 C17.08627043 27.79764029 17.09227728 23.89437301 17.09487724 19.9910717 C17.09673111 18.49866353 17.100351 17.00625652 17.10573006 15.51385689 C17.11294331 13.43051861 17.11399083 11.34726469 17.11352539 9.26391602 C17.11685631 7.48187523 17.11685631 7.48187523 17.12025452 5.66383362 C17.30362595 3.07879307 17.30362595 3.07879307 16 2 C13.66839945 1.90090698 11.33370058 1.87029496 9 1.875 C7.72125 1.87242188 6.4425 1.86984375 5.125 1.8671875 C2.13312756 1.64139107 2.13312756 1.64139107 1 3 Z " fill="#2480AB" transform="translate(434,109)"/>
<path d="M0 0 C0.66 0 1.32 0 2 0 C2 0.66 2 1.32 2 2 C1.34 2 0.68 2 0 2 C0.33 22.79 0.66 43.58 1 65 C2.98 65.33 4.96 65.66 7 66 C5.68 67.65 4.36 69.3 3 71 C3.66 72.32 4.32 73.64 5 75 C6.32 75 7.64 75 9 75 C9.33 75.99 9.66 76.98 10 78 C5.00544191 76.72232235 2.38702189 74.87088216 -1 71 C-2.41130972 68.17738056 -2.1350646 65.81096989 -2.14526367 62.65429688 C-2.14862228 62.00372818 -2.1519809 61.35315948 -2.15544128 60.68287659 C-2.16495576 58.52814841 -2.1668945 56.37349788 -2.16796875 54.21875 C-2.17118051 52.72424283 -2.17454452 51.22973599 -2.17805481 49.73522949 C-2.18404698 46.60131094 -2.18589457 43.46741997 -2.18530273 40.33349609 C-2.185201 36.31151948 -2.19886462 32.28971895 -2.21607494 28.26778412 C-2.22717456 25.18120506 -2.22922259 22.09466888 -2.22869301 19.0080719 C-2.22987577 17.52486055 -2.23431405 16.04164819 -2.24202538 14.55845642 C-2.25178631 12.48741178 -2.2489632 10.41675355 -2.24291992 8.34570312 C-2.24434494 7.16592896 -2.24576996 5.98615479 -2.24723816 4.77062988 C-2 2 -2 2 0 0 Z " fill="#278BB8" transform="translate(151,148)"/>
<path d="M0 0 C1.32 0 2.64 0 4 0 C4.0462833 8.70115581 4.08184872 17.40226942 4.10362434 26.10352135 C4.11407407 30.14360264 4.1282548 34.18359989 4.15087891 38.22363281 C4.17256512 42.12044733 4.18455967 46.01718087 4.18975449 49.91405106 C4.19345786 51.40285136 4.20068938 52.8916471 4.21146011 54.38041306 C4.22591919 56.46122667 4.22798033 58.54170306 4.22705078 60.62255859 C4.231492 61.80836517 4.23593323 62.99417175 4.24050903 64.21591187 C4 67 4 67 2 69 C-1.84177074 68.69670231 -4.09427672 67.47524576 -7 65 C-6.030625 64.690625 -5.06125 64.38125 -4.0625 64.0625 C-1.15934208 63.30476658 -1.15934208 63.30476658 0 62 C1.32095049 54.79898517 1.08206859 47.55378532 1.01885986 40.2605896 C0.92324501 29.11681814 0.93205133 18.05585424 1.9765625 6.94921875 C2.00042979 3.94591791 1.61204211 2.49189715 0 0 Z " fill="#0C242D" transform="translate(131,51)"/>
<path d="M0 0 C0.66 0.33 1.32 0.66 2 1 C1.34 2.32 0.68 3.64 0 5 C0.66 5 1.32 5 2 5 C2.33 4.01 2.66 3.02 3 2 C4.65 2 6.3 2 8 2 C8 4.31 8 6.62 8 9 C10.31 9.33 12.62 9.66 15 10 C15.33 11.65 15.66 13.3 16 15 C24.22655809 15.36365992 24.22655809 15.36365992 32 13 C32.804375 12.13375 33.60875 11.2675 34.4375 10.375 C37 8 37 8 40.8125 7.6875 C41.864375 7.790625 42.91625 7.89375 44 8 C41.45160594 10.83541455 38.56881823 12.66537187 35.3125 14.625 C33.82169922 15.54152344 33.82169922 15.54152344 32.30078125 16.4765625 C27.85205631 18.52982016 23.79846247 19.96766399 18.9934082 18.30615234 C16.91657068 17.26277359 14.96717661 16.11236363 13 14.875 C12.30519531 14.46064697 11.61039063 14.04629395 10.89453125 13.61938477 C8.91627385 12.43331182 6.95663081 11.22131971 5 10 C4.071875 9.43410156 3.14375 8.86820313 2.1875 8.28515625 C0.44490883 7.21159562 -1.28065538 6.11041007 -3 5 C-2.01 3.35 -1.02 1.7 0 0 Z " fill="#1680B2" transform="translate(40,152)"/>
<path d="M0 0 C5.15542241 -0.05009754 10.31069767 -0.08604323 15.46630859 -0.10986328 C17.21372959 -0.11981187 18.96113444 -0.13337557 20.70849609 -0.15087891 C49.20346616 -0.42879887 49.20346616 -0.42879887 61 6 C58 7 58 7 54.5625 5.625 C43.52618813 1.27256456 30.389521 3.04428808 18.75 3.4375 C17.02215452 3.4908566 15.29428985 3.54359546 13.56640625 3.59570312 C9.37734915 3.72335697 5.18863961 3.85933673 1 4 C0.67 2.68 0.34 1.36 0 0 Z " fill="#1D84B8" transform="translate(290,88)"/>
<path d="M0 0 C0.33 0 0.66 0 1 0 C1.10142562 7.74117848 1.17147669 15.48218558 1.21972656 23.22387695 C1.23984098 25.85740563 1.26713604 28.49088966 1.30175781 31.12426758 C1.35028088 34.90978007 1.37297112 38.694702 1.390625 42.48046875 C1.41127014 43.65772018 1.43191528 44.83497162 1.45318604 46.04789734 C1.45543419 54.23887215 1.45543419 54.23887215 -0.91503906 58.20043945 C-4.67861751 61.44883954 -7.51064874 62.54615276 -12.62890625 62.46875 C-17.55004119 61.49587324 -21.77751841 58.60800333 -26 56 C-24.02 55.505 -24.02 55.505 -22 55 C-22 55.66 -22 56.32 -22 57 C-21.32453125 56.91621094 -20.6490625 56.83242187 -19.953125 56.74609375 C-18.61507812 56.59333984 -18.61507812 56.59333984 -17.25 56.4375 C-15.92742187 56.28087891 -15.92742187 56.28087891 -14.578125 56.12109375 C-12.06704969 56.0031493 -10.38144233 56.26911018 -8 57 C-6.66768358 57.33737492 -5.3344673 57.67123578 -4 58 C-1.16603631 51.06885206 -0.53466232 44.84491527 -0.48828125 37.40234375 C-0.47033005 36.32747208 -0.45237885 35.2526004 -0.43388367 34.14515686 C-0.38009468 30.7426434 -0.34598564 27.34026768 -0.3125 23.9375 C-0.27929924 21.6178195 -0.24480706 19.29815711 -0.20898438 16.97851562 C-0.12438653 11.31913404 -0.05590489 5.65973391 0 0 Z " fill="#2780A9" transform="translate(210,185)"/>
<path d="M0 0 C1.32 0.66 2.64 1.32 4 2 C3.01 2 2.02 2 1 2 C1.33 24.77 1.66 47.54 2 71 C1.01 71 0.02 71 -1 71 C-1.02312545 61.89040835 -1.04091612 52.78082674 -1.05181217 43.6712122 C-1.05704056 39.44168629 -1.0641374 35.2121804 -1.07543945 30.98266602 C-1.08626991 26.90431457 -1.09227717 22.82598243 -1.09487724 18.74761772 C-1.09673121 17.18822361 -1.10035127 15.6288306 -1.10573006 14.06944466 C-1.11294262 11.89270838 -1.11399085 9.71605286 -1.11352539 7.53930664 C-1.115746 6.29798477 -1.11796661 5.0566629 -1.12025452 3.77772522 C-1 1 -1 1 0 0 Z " fill="#152D38" transform="translate(768,108)"/>
<path d="M0 0 C4.67105792 1.55701931 8.08705685 4.08447373 12 7 C11.7133134 10.22522424 11.47057174 11.60377322 8.94628906 13.72924805 C8.06166992 14.23496338 7.17705078 14.74067871 6.265625 15.26171875 C5.29882812 15.82310547 4.33203125 16.38449219 3.3359375 16.96289062 C2.31757812 17.53201172 1.29921875 18.10113281 0.25 18.6875 C-0.75289062 19.26822266 -1.75578125 19.84894531 -2.7890625 20.44726562 C-7.11880395 22.93083748 -11.32376597 25.23142431 -16 27 C-16 24.69 -16 22.38 -16 20 C-12.99301956 18.99767319 -10.14593862 18.61866999 -7.0078125 18.25390625 C-4.6437034 17.95494304 -2.32732406 17.50910214 0 17 C0.33 16.01 0.66 15.02 1 14 C3.5625 12.8125 3.5625 12.8125 6 12 C6 10.35 6 8.7 6 7 C4.02 6.34 2.04 5.68 0 5 C0 3.33333333 0 1.66666667 0 0 Z " fill="#187FAD" transform="translate(112,126)"/>
<path d="M0 0 C4.62 0 9.24 0 14 0 C16 4 16 4 16 8 C15.01 8 14.02 8 13 8 C12.67 6.35 12.34 4.7 12 3 C8.37 3.33 4.74 3.66 1 4 C0.67 25.78 0.34 47.56 0 70 C-0.33 70 -0.66 70 -1 70 C-1.02314123 61.16844684 -1.0409242 52.33690406 -1.05181217 43.50532722 C-1.05703709 39.40474504 -1.06412768 35.30418355 -1.07543945 31.20361328 C-1.08628218 27.24845043 -1.09227979 23.29330752 -1.09487724 19.33813095 C-1.09672898 17.82701173 -1.10034482 16.31589363 -1.10573006 14.80478287 C-1.11295886 12.69291042 -1.11399016 10.58112105 -1.11352539 8.46923828 C-1.115746 7.26566681 -1.11796661 6.06209534 -1.12025452 4.822052 C-1 2 -1 2 0 0 Z " fill="#001B2D" transform="translate(770,108)"/>
<path d="M0 0 C0.33 0 0.66 0 1 0 C1.875 3.0625 1.875 3.0625 2 7 C-1.50270149 13.23645194 -7.69543818 16.63635455 -13.75 20 C-15.04357422 20.75216797 -15.04357422 20.75216797 -16.36328125 21.51953125 C-21.06285929 24.18924459 -21.06285929 24.18924459 -23 25 C-23.66 24.67 -24.32 24.34 -25 24 C-22.6408035 20.1990723 -20.11462148 18.67943734 -16 17 C-14.68 17 -13.36 17 -12 17 C-12.33 16.01 -12.66 15.02 -13 14 C-11.02 13.34 -9.04 12.68 -7 12 C-7.33 10.02 -7.66 8.04 -8 6 C-6.576875 5.9071875 -6.576875 5.9071875 -5.125 5.8125 C-4.09375 5.544375 -3.0625 5.27625 -2 5 C-0.54708727 2.53744315 -0.54708727 2.53744315 0 0 Z " fill="#127DB5" transform="translate(209,76)"/>
<path d="M0 0 C3.30428394 1.92249248 5.45194483 3.3039476 6.66015625 7.04296875 C7 9.1875 7 9.1875 7 13 C6.34 13.66 5.68 14.32 5 15 C4.67 14.01 4.34 13.02 4 12 C4.66 12 5.32 12 6 12 C4.12297673 7.10437307 4.12297673 7.10437307 1 3 C-1.68839385 2.73008094 -4.29141936 2.91262643 -7 3 C-7.33 3.66 -7.66 4.32 -8 5 C-8.99 5.66 -9.98 6.32 -11 7 C-11 7.66 -11 8.32 -11 9 C-10.34 9.33 -9.68 9.66 -9 10 C-9.185625 11.11375 -9.37125 12.2275 -9.5625 13.375 C-10.31680657 16.82568861 -10.31680657 16.82568861 -9 19 C-11.36810318 18.05275873 -12.75207953 17.34708866 -14.25 15.25 C-15.60360829 11.18917513 -15.5232338 8.15111436 -13.75 4.25 C-10.1717856 -0.35056138 -5.65752784 -1.03160297 0 0 Z " fill="#2081B1" transform="translate(447,79)"/>
<path d="M0 0 C0.33 0 0.66 0 1 0 C1.62250526 3.82494901 1.80105489 7.19111322 1 11 C-1.7772416 14.22415404 -5.30293178 15.96504021 -9 18 C-10.31534643 18.80182766 -11.62633339 19.61083697 -12.93359375 20.42578125 C-23.5508425 27 -23.5508425 27 -26 27 C-25.25 22.25 -25.25 22.25 -23 20 C-22.34 20.33 -21.68 20.66 -21 21 C-20.46890625 20.59007812 -19.9378125 20.18015625 -19.390625 19.7578125 C-18.68421875 19.21898437 -17.9778125 18.68015625 -17.25 18.125 C-16.55390625 17.59132812 -15.8578125 17.05765625 -15.140625 16.5078125 C-10.99826321 13.59001752 -6.88747318 12.31585816 -2 11 C-1.90912109 10.06027344 -1.90912109 10.06027344 -1.81640625 9.1015625 C-1.73261719 8.28429687 -1.64882813 7.46703125 -1.5625 6.625 C-1.48128906 5.81289062 -1.40007812 5.00078125 -1.31640625 4.1640625 C-1 2 -1 2 0 0 Z " fill="#06202D" transform="translate(266,132)"/>
<path d="M0 0 C1.66611905 -0.042721 3.33382885 -0.04063832 5 0 C6.82888002 1.82888002 6.14683794 4.72893043 6.16113281 7.18457031 C6.16609772 7.8301741 6.17106262 8.47577789 6.17617798 9.14094543 C6.19083702 11.28668265 6.19760916 13.43234584 6.203125 15.578125 C6.20887516 17.06687422 6.21463291 18.5556234 6.22039795 20.04437256 C6.2309198 23.17167507 6.23675411 26.2989518 6.24023438 29.42626953 C6.24570937 33.42899916 6.26971073 37.43138693 6.29820633 41.43400955 C6.31685766 44.51213565 6.32203972 47.59018002 6.32357025 50.66835785 C6.32659374 52.14352021 6.33461206 53.61868124 6.34775543 55.09378815 C6.36486226 57.16207064 6.36292454 59.2295265 6.35644531 61.29785156 C6.36009094 62.4739801 6.36373657 63.65010864 6.36749268 64.86187744 C5.96483415 68.30029105 4.98687089 70.20183649 3 73 C2.01 72.67 1.02 72.34 0 72 C1.375 69.5 1.375 69.5 3 67 C3.66 67 4.32 67 5 67 C5 46.21 5 25.42 5 4 C4.34 4 3.68 4 3 4 C3 3.34 3 2.68 3 2 C2.01 2 1.02 2 0 2 C0 1.34 0 0.68 0 0 Z " fill="#0B252C" transform="translate(129,149)"/>
<path d="M0 0 C2.86688248 0.09096556 5.70300515 0.23767988 8.5625 0.4375 C9.36880859 0.48970703 10.17511719 0.54191406 11.00585938 0.59570312 C13.00421738 0.72577376 15.00215386 0.86229056 17 1 C17 3.31 17 5.62 17 8 C16.67 8 16.34 8 16 8 C16 6.02 16 4.04 16 2 C11.05 2 6.1 2 1 2 C0.67 25.1 0.34 48.2 0 72 C-0.33 72 -0.66 72 -1 72 C-1.02312524 62.76002448 -1.04091601 53.52005886 -1.05181217 44.28006077 C-1.05704061 39.99000085 -1.06413753 35.69996067 -1.07543945 31.40991211 C-1.08626975 27.273206 -1.09227714 23.13651892 -1.09487724 18.99979973 C-1.09673124 17.41807696 -1.10035136 15.83635529 -1.10573006 14.25464058 C-1.1129424 12.04677162 -1.11399086 9.83898227 -1.11352539 7.63110352 C-1.115746 6.37201675 -1.11796661 5.11292999 -1.12025452 3.81568909 C-1 1 -1 1 0 0 Z " fill="#3689A2" transform="translate(472,108)"/>
<path d="M0 0 C3.24502137 3.02868661 5.59991655 5.56693437 6.3359375 10.04296875 C6.44293071 15.91689576 5.36922981 21.08134043 2 26 C-0.140625 27.25390625 -0.140625 27.25390625 -2 28 C-2.66 27.34 -3.32 26.68 -4 26 C-4 25.34 -4 24.68 -4 24 C-3.34 24 -2.68 24 -2 24 C-2 23.34 -2 22.68 -2 22 C-0.68 21.67 0.64 21.34 2 21 C2.66 16.38 3.32 11.76 4 7 C3.01 7 2.02 7 1 7 C0.01 5.02 -0.98 3.04 -2 1 C-1.34 0.67 -0.68 0.34 0 0 Z " fill="#081F2C" transform="translate(907,145)"/>
<path d="M0 0 C0 5.94 0 11.88 0 18 C-4.62 18.33 -9.24 18.66 -14 19 C-13.67 18.34 -13.34 17.68 -13 17 C-9.37 17 -5.74 17 -2 17 C-2 13.37 -2 9.74 -2 6 C-2.99 6 -3.98 6 -5 6 C-5.33 5.34 -5.66 4.68 -6 4 C-8.97 4 -11.94 4 -15 4 C-9.77113908 -0.29513576 -7.02455343 0 0 0 Z " fill="#2380B0" transform="translate(421,108)"/>
<path d="M0 0 C5.57152365 5.82477472 5.21540858 14.35479591 5.0703125 21.91015625 C5.04710937 22.59980469 5.02390625 23.28945312 5 24 C2.02598664 25.48700668 -0.94818926 25.00619932 -4.1953125 24.87890625 C-5.25647781 24.84348976 -5.25647781 24.84348976 -6.33908081 24.80735779 C-8.60125755 24.73071166 -10.86309273 24.64669188 -13.125 24.5625 C-14.6575353 24.50928023 -16.19008734 24.45653982 -17.72265625 24.40429688 C-21.48198761 24.27509533 -25.24102908 24.13927963 -29 24 C-29 23.67 -29 23.34 -29 23 C-18.11 23 -7.22 23 4 23 C4 22.01 4 21.02 4 20 C3.34 19.67 2.68 19.34 2 19 C1.375 16.4375 1.375 16.4375 1 14 C0.34 14 -0.32 14 -1 14 C-0.4821469 11.9285876 0.03834307 9.86579924 0.625 7.8125 C0.74875 7.214375 0.8725 6.61625 1 6 C0.67 5.67 0.34 5.34 0 5 C-0.04063832 3.33382885 -0.042721 1.66611905 0 0 Z " fill="#2185B3" transform="translate(667,126)"/>
<path d="M0 0 C3 2 3 2 5 4 C4.67 4.66 4.34 5.32 4 6 C3.62875 5.525625 3.2575 5.05125 2.875 4.5625 C0.2377954 2.3648295 -1.58535902 2.06829282 -5 2 C-7.75256794 3.85164036 -7.75256794 3.85164036 -10 6 C-10.66 6 -11.32 6 -12 6 C-12.33417929 9.3324787 -12.33417929 9.3324787 -12 13 C-10.08333079 15.25065102 -10.08333079 15.25065102 -8 17 C-8 17.99 -8 18.98 -8 20 C-11.37177797 18.60478153 -13.25017709 17.23717239 -15 14 C-15.5412081 9.03892575 -15.14534237 5.93167796 -12 2 C-8.5512959 -0.68232541 -4.1882046 -0.7132388 0 0 Z " fill="#0C2531" transform="translate(835,79)"/>
<path d="M0 0 C8.30894309 6.82926829 8.30894309 6.82926829 10 10 C9.72706484 12.72935159 9.22133847 13.78790424 7.22265625 15.703125 C6.50980469 16.21359375 5.79695312 16.7240625 5.0625 17.25 C4.35222656 17.77078125 3.64195312 18.2915625 2.91015625 18.828125 C1 20 1 20 -1 20 C-0.67 18.68 -0.34 17.36 0 16 C1.32 16 2.64 16 4 16 C4 15.34 4 14.68 4 14 C4.99 13.67 5.98 13.34 7 13 C7.33 12.01 7.66 11.02 8 10 C7.071875 9.566875 7.071875 9.566875 6.125 9.125 C4 8 4 8 2 6 C1.34 6 0.68 6 0 6 C-2 6 -4 6 -6 6 C-4 4 -2 2 0 0 Z " fill="#2081AD" transform="translate(657,157)"/>
<path d="M0 0 C3.48774555 4.30690129 6.84856045 8.70261685 10.1875 13.125 C10.73341797 13.84042969 11.27933594 14.55585938 11.84179688 15.29296875 C12.36193359 15.98261719 12.88207031 16.67226562 13.41796875 17.3828125 C13.89000732 18.00559082 14.3620459 18.62836914 14.84838867 19.27001953 C16 21 16 21 17 24 C16.01 23.67 15.02 23.34 14 23 C14 22.34 14 21.68 14 21 C12.68 20.67 11.36 20.34 10 20 C10 19.34 10 18.68 10 18 C9.34 18 8.68 18 8 18 C8 17.01 8 16.02 8 15 C7.01 15.33 6.02 15.66 5 16 C4.87882813 15.43410156 4.75765625 14.86820313 4.6328125 14.28515625 C4.46523438 13.55167969 4.29765625 12.81820312 4.125 12.0625 C3.96257813 11.33160156 3.80015625 10.60070312 3.6328125 9.84765625 C3.17038477 7.79299706 3.17038477 7.79299706 1 7 C0.59270772 4.67843403 0.25561323 2.3431213 0 0 Z " fill="#0A2430" transform="translate(735,149)"/>
<path d="M0 0 C-0.33 0.99 -0.66 1.98 -1 3 C-1.33 2.34 -1.66 1.68 -2 1 C-13.04748162 1.37385725 -20.81880742 3.44812992 -29 11 C-29.66 10.67 -30.32 10.34 -31 10 C-22.87411613 -2.26548508 -13.48302582 -1.20949031 0 0 Z " fill="#0E2531" transform="translate(754,109)"/>
<path d="M0 0 C-2.95031456 1.86716955 -5.91143123 3.71645299 -8.875 5.5625 C-9.71675781 6.09552734 -10.55851563 6.62855469 -11.42578125 7.17773438 C-12.23144531 7.67724609 -13.03710938 8.17675781 -13.8671875 8.69140625 C-14.61081543 9.15748291 -15.35444336 9.62355957 -16.12060547 10.10375977 C-16.74080566 10.39951904 -17.36100586 10.69527832 -18 11 C-18.66 10.67 -19.32 10.34 -20 10 C-19.25 7.0625 -19.25 7.0625 -18 4 C-15.09299153 2.593383 -14.12277995 2.95907335 -11 4 C-10.67 3.34 -10.34 2.68 -10 2 C-6.19708553 -0.28174868 -4.24267524 -1.37127681 0 0 Z " fill="#1C89C0" transform="translate(182,103)"/>
<path d="M0 0 C2.31 0.33 4.62 0.66 7 1 C7.33 1.99 7.66 2.98 8 4 C8.99 3.67 9.98 3.34 11 3 C10.67 4.65 10.34 6.3 10 8 C10.66 8 11.32 8 12 8 C12 8.66 12 9.32 12 10 C7.40004237 8.68572639 3.73569635 7.02413514 0 4 C0 2.68 0 1.36 0 0 Z M8 1 C10 2 10 2 10 2 Z " fill="#1491CA" transform="translate(164,225)"/>
<path d="M0 0 C0.66 0 1.32 0 2 0 C2.33 1.65 2.66 3.3 3 5 C3.66 5 4.32 5 5 5 C6 6.66666667 7 8.33333333 8 10 C8.886875 10.886875 9.77375 11.77375 10.6875 12.6875 C13 15 13 15 13 17 C15.31 17.33 17.62 17.66 20 18 C20 18.33 20 18.66 20 19 C16.62858419 19.74920351 15.22667588 20.035851 12 19 C8.17235814 15.34711057 5.11204499 11.26731569 2 7 C1.38769531 6.27296875 0.77539062 5.5459375 0.14453125 4.796875 C-0.23316406 4.20390625 -0.61085938 3.6109375 -1 3 C-0.67 2.01 -0.34 1.02 0 0 Z " fill="#08242F" transform="translate(724,161)"/>
<path d="M0 0 C-4.80476402 5.34591492 -12.48375872 10.0011412 -19.625 11.0625 C-23 11 -23 11 -25 9 C-22.03 9 -19.06 9 -16 9 C-16 8.34 -16 7.68 -16 7 C-14.34151823 5.98648336 -12.67334039 4.98879205 -11 4 C-10.38125 3.278125 -9.7625 2.55625 -9.125 1.8125 C-6.12220965 -0.74870354 -3.81859853 -0.29373835 0 0 Z " fill="#2580AB" transform="translate(84,160)"/>
<path d="M0 0 C-3.28466137 3.67882073 -6.66360908 5.75150101 -11 8 C-11.66 8 -12.32 8 -13 8 C-13 5.69 -13 3.38 -13 1 C-9.01392918 -0.32869027 -3.88945394 -1.94472697 0 0 Z " fill="#1682B8" transform="translate(109,145)"/>
<path d="M0 0 C-0.33 0.66 -0.66 1.32 -1 2 C-3.97 1.505 -3.97 1.505 -7 1 C-6.67 0.34 -6.34 -0.32 -6 -1 C-14.50042348 -5.68988882 -20.28680563 -8.35471379 -30 -6 C-21.6976109 -15.54774746 -8.19273988 -5.01120647 0 0 Z " fill="#142D39" transform="translate(238,110)"/>
<path d="M0 0 C1.45823212 -0.0270043 2.91660675 -0.04639787 4.375 -0.0625 C5.18710937 -0.07410156 5.99921875 -0.08570313 6.8359375 -0.09765625 C9 0 9 0 11 1 C12.3734635 1.15004973 13.7528526 1.24838006 15.1328125 1.31640625 C15.93847656 1.35830078 16.74414062 1.40019531 17.57421875 1.44335938 C18.41597656 1.48267578 19.25773438 1.52199219 20.125 1.5625 C21.39923828 1.62727539 21.39923828 1.62727539 22.69921875 1.69335938 C24.79928223 1.79954236 26.89961948 1.90028497 29 2 C22.88808669 5.76926349 14.40045457 4.68325045 7.63671875 3.32421875 C5.06074235 2.61924985 2.52594509 1.86603832 0 1 C0 0.67 0 0.34 0 0 Z " fill="#2684B1" transform="translate(621,177)"/>
<path d="M0 0 C0.33 0 0.66 0 1 0 C1 5.61 1 11.22 1 17 C-4.28 17.66 -9.56 18.32 -15 19 C-11.08720339 16.06540254 -10.2725511 15.61003626 -5.75 15.3125 C-4.85796875 15.24675781 -3.9659375 15.18101563 -3.046875 15.11328125 C-2.37140625 15.07589844 -1.6959375 15.03851563 -1 15 C-1.01160156 14.08476563 -1.02320313 13.16953125 -1.03515625 12.2265625 C-1.04417969 11.03804687 -1.05320312 9.84953125 -1.0625 8.625 C-1.07410156 7.44164063 -1.08570313 6.25828125 -1.09765625 5.0390625 C-1 2 -1 2 0 0 Z " fill="#102935" transform="translate(808,108)"/>
<path d="M0 0 C1.37671875 -0.00386719 1.37671875 -0.00386719 2.78125 -0.0078125 C5.45004454 0.12255965 7.89865153 0.53121394 10.5 1.125 C6.875 4.125 6.875 4.125 3.5 4.125 C3.5 3.135 3.5 2.145 3.5 1.125 C2.84773437 1.269375 2.19546875 1.41375 1.5234375 1.5625 C-3.22620177 2.57127294 -7.61409188 3.38215306 -12.5 3.125 C-12.5 3.785 -12.5 4.445 -12.5 5.125 C-13.82 5.125 -15.14 5.125 -16.5 5.125 C-16.5 5.785 -16.5 6.445 -16.5 7.125 C-17.82 6.795 -19.14 6.465 -20.5 6.125 C-18.94148245 5.30488688 -17.37798284 4.49423787 -15.8125 3.6875 C-14.94238281 3.23503906 -14.07226562 2.78257813 -13.17578125 2.31640625 C-8.77557356 0.35718969 -4.78177993 -0.01343197 0 0 Z " fill="#2682AF" transform="translate(636.5,107.875)"/>
<path d="M0 0 C-3.8478296 3.24683526 -7.83473843 5.82455791 -12.1875 8.3125 C-13.13012695 8.8703418 -13.13012695 8.8703418 -14.09179688 9.43945312 C-15.69197857 10.35848796 -17.34324411 11.18737069 -19 12 C-19.66 11.67 -20.32 11.34 -21 11 C-18.6408035 7.1990723 -16.11462148 5.67943734 -12 4 C-10.68 4 -9.36 4 -8 4 C-8.33 3.01 -8.66 2.02 -9 1 C-6.04335481 -0.4783226 -3.25770263 -0.06032783 0 0 Z " fill="#1C7AA6" transform="translate(205,89)"/>
<path d="M0 0 C1.3125 2.125 1.3125 2.125 2 4 C1.38125 3.525625 0.7625 3.05125 0.125 2.5625 C-4.77262536 0.11368732 -9.87988993 -0.6453561 -15.28515625 0.47265625 C-19.3841948 1.87475729 -22.19074537 3.60548398 -25 7 C-25 4.69 -25 2.38 -25 0 C-22.525 0.495 -22.525 0.495 -20 1 C-20 0.34 -20 -0.32 -20 -1 C-13.61170878 -2.31041871 -5.83866441 -3.53858449 0 0 Z " fill="#2981AA" transform="translate(516,126)"/>
<path d="M0 0 C4.58467606 1.64692247 8.6381576 3.96485125 12.8125 6.4375 C13.50537109 6.83259766 14.19824219 7.22769531 14.91210938 7.63476562 C16.66176642 8.67076945 18.33862629 9.8276344 20 11 C20 11.99 20 12.98 20 14 C18.68 13.34 17.36 12.68 16 12 C16 11.34 16 10.68 16 10 C14.02 10.33 12.04 10.66 10 11 C10 9.68 10 8.36 10 7 C8.68 6.67 7.36 6.34 6 6 C6 5.34 6 4.68 6 4 C4.35 3.67 2.7 3.34 1 3 C0.67 2.01 0.34 1.02 0 0 Z " fill="#1B7BB1" transform="translate(188,169)"/>
<path d="M0 0 C1.24523437 0.01804687 2.49046875 0.03609375 3.7734375 0.0546875 C5.18496094 0.08949219 5.18496094 0.08949219 6.625 0.125 C6.625 0.455 6.625 0.785 6.625 1.125 C4.975 1.125 3.325 1.125 1.625 1.125 C1.625 1.785 1.625 2.445 1.625 3.125 C-7.285 4.115 -7.285 4.115 -16.375 5.125 C-11.42886394 0.17886394 -6.81083564 -0.12850633 0 0 Z " fill="#2182B4" transform="translate(511.375,107.875)"/>
<path d="M0 0 C0.33 0.66 0.66 1.32 1 2 C-2.86448384 7.76744937 -6.97731846 12.41894611 -13 16 C-13.66 16 -14.32 16 -15 16 C-14.3125 13.5625 -14.3125 13.5625 -13 11 C-10.4375 10.3125 -10.4375 10.3125 -8 10 C-7.67 9.34 -7.34 8.68 -7 8 C-6.34 8 -5.68 8 -5 8 C-4.67 6.35 -4.34 4.7 -4 3 C-3.01 3 -2.02 3 -1 3 C-0.67 2.01 -0.34 1.02 0 0 Z " fill="#1E7EAC" transform="translate(362,135)"/>
<path d="M0 0 C8.05729945 4.57431698 16.08340363 9.18437456 24 14 C21 15 21 15 18.765625 13.92578125 C17.93546875 13.39339844 17.1053125 12.86101562 16.25 12.3125 C15.36699219 11.75949219 14.48398438 11.20648438 13.57421875 10.63671875 C12.72472656 10.09660156 11.87523437 9.55648437 11 9 C6.34934483 5.96495967 6.34934483 5.96495967 1 5 C0.67 3.35 0.34 1.7 0 0 Z " fill="#132A33" transform="translate(239,111)"/>
<path d="M0 0 C0 0.66 0 1.32 0 2 C-2.56564725 3.28282363 -4.51033069 3.20391953 -7.375 3.25 C-8.33148437 3.27578125 -9.28796875 3.3015625 -10.2734375 3.328125 C-13.37892147 2.95439914 -14.70536066 2.06626291 -17 0 C-14.54203147 -0.19436491 -12.08390706 -0.3807742 -9.625 -0.5625 C-8.92632813 -0.61857422 -8.22765625 -0.67464844 -7.5078125 -0.73242188 C-2.2265625 -1.11328125 -2.2265625 -1.11328125 0 0 Z " fill="#031D28" transform="translate(890,178)"/>
<path d="M0 0 C0.66 0.33 1.32 0.66 2 1 C0.33106322 3.7573738 -0.97621512 5.67689725 -4.12890625 6.671875 C-5.70682664 6.97342156 -7.28769107 7.2599586 -8.87109375 7.53125 C-11.46691162 8.10280623 -13.0878355 9.17097309 -15 11 C-15 9.68 -15 8.36 -15 7 C-14.45730469 6.81824219 -13.91460937 6.63648438 -13.35546875 6.44921875 C-12.28232422 6.07216797 -12.28232422 6.07216797 -11.1875 5.6875 C-10.47980469 5.44386719 -9.77210938 5.20023438 -9.04296875 4.94921875 C-6.92300812 4.11017557 -6.92300812 4.11017557 -5.42578125 2.39453125 C-4 1 -4 1 -1 1 C-0.67 0.67 -0.34 0.34 0 0 Z " fill="#1393D0" transform="translate(165,41)"/>
<path d="M0 0 C0 0.66 0 1.32 0 2 C-2.97 3.65 -5.94 5.3 -9 7 C-9.99 6.34 -10.98 5.68 -12 5 C-11.34 4.34 -10.68 3.68 -10 3 C-9.67 2.34 -9.34 1.68 -9 1 C-3.6407767 -1.21359223 -3.6407767 -1.21359223 0 0 Z " fill="#07202B" transform="translate(106,235)"/>
<path d="M0 0 C1.2065625 0.0309375 1.2065625 0.0309375 2.4375 0.0625 C-0.35446011 3.34715896 -3.79446817 5.07571958 -7.5625 7.0625 C-8.2225 7.0625 -8.8825 7.0625 -9.5625 7.0625 C-10.5625 4.0625 -10.5625 4.0625 -9.5625 1.0625 C-8.1084375 1.0934375 -8.1084375 1.0934375 -6.625 1.125 C-3.22707532 1.0556546 -3.2165483 0.0784524 0 0 Z " fill="#1A80B1" transform="translate(93.5625,152.9375)"/>
<path d="M0 0 C0.33 0 0.66 0 1 0 C1.84888195 5.37625234 2.0024305 9.65370398 1 15 C-2.82097239 14.46930939 -5.06171403 13.50298434 -8 11 C-7.030625 10.690625 -6.06125 10.38125 -5.0625 10.0625 C-2.15934208 9.30476658 -2.15934208 9.30476658 -1 8 C-0.76924918 6.65252916 -0.58846937 5.29622435 -0.4375 3.9375 C-0.293125 2.638125 -0.14875 1.33875 0 0 Z " fill="#06202B" transform="translate(132,105)"/>
<path d="M0 0 C1.66611905 -0.042721 3.33382885 -0.04063832 5 0 C6 1 6 1 6.11352539 3.59204102 C6.10828857 4.71795654 6.10305176 5.84387207 6.09765625 7.00390625 C6.09443359 8.21884766 6.09121094 9.43378906 6.08789062 10.68554688 C6.07951172 11.96494141 6.07113281 13.24433594 6.0625 14.5625 C6.05798828 15.84576172 6.05347656 17.12902344 6.04882812 18.45117188 C6.03699545 21.63416022 6.02051068 24.81705762 6 28 C5.67 28 5.34 28 5 28 C5 20.08 5 12.16 5 4 C4.34 4 3.68 4 3 4 C3 3.34 3 2.68 3 2 C2.01 2 1.02 2 0 2 C0 1.34 0 0.68 0 0 Z " fill="#102B34" transform="translate(129,149)"/>
<path d="M0 0 C4.62 0 9.24 0 14 0 C16 4 16 4 16 8 C15.01 8 14.02 8 13 8 C13 6.02 13 4.04 13 2 C11.84371094 2.03480469 11.84371094 2.03480469 10.6640625 2.0703125 C9.66117188 2.08835937 8.65828125 2.10640625 7.625 2.125 C6.62726562 2.14820312 5.62953125 2.17140625 4.6015625 2.1953125 C2 2 2 2 0 0 Z " fill="#061823" transform="translate(770,108)"/>
<path d="M0 0 C0.37125 0.515625 0.7425 1.03125 1.125 1.5625 C3.03173152 3.36319983 3.03173152 3.36319983 6.1875 2.6875 C7.115625 2.460625 8.04375 2.23375 9 2 C9 2.66 9 3.32 9 4 C4.05 6.475 4.05 6.475 -1 9 C-1.09765625 2.84765625 -1.09765625 2.84765625 -1 1 C-0.67 0.67 -0.34 0.34 0 0 Z " fill="#051D2B" transform="translate(113,224)"/>
<path d="M0 0 C0 0.66 0 1.32 0 2 C-10.23 2 -20.46 2 -31 2 C-31 1.67 -31 1.34 -31 1 C-30.26362305 0.97494385 -29.52724609 0.9498877 -28.76855469 0.92407227 C-25.42886622 0.80795727 -22.08944903 0.68530082 -18.75 0.5625 C-17.59113281 0.52318359 -16.43226563 0.48386719 -15.23828125 0.44335938 C-13.56572266 0.38051758 -13.56572266 0.38051758 -11.859375 0.31640625 C-10.31975098 0.26141968 -10.31975098 0.26141968 -8.74902344 0.20532227 C-6.05982034 0.08678552 -6.05982034 0.08678552 -3.75878906 -0.58227539 C-2 -1 -2 -1 0 0 Z " fill="#178EC7" transform="translate(656,138)"/>
<path d="M0 0 C1.8141927 0.28094582 3.62635001 0.57506433 5.4375 0.875 C6.95150391 1.11863281 6.95150391 1.11863281 8.49609375 1.3671875 C9.32238281 1.57601562 10.14867187 1.78484375 11 2 C11.33 2.66 11.66 3.32 12 4 C14.01669827 5.13350534 14.01669827 5.13350534 16 6 C10.21484858 7.92838381 4.32605188 4.3912886 -1 2 C-0.67 1.34 -0.34 0.68 0 0 Z " fill="#05202B" transform="translate(886,137)"/>
<path d="M0 0 C0.66 0.33 1.32 0.66 2 1 C1.01 1.33 0.02 1.66 -1 2 C-1.33 3.98 -1.66 5.96 -2 8 C-0.68 8.66 0.64 9.32 2 10 C2 10.66 2 11.32 2 12 C-0.91517292 10.92598892 -2.77810176 10.22189824 -5 8 C-5.4375 5.5625 -5.4375 5.5625 -5 3 C-2.625 1.125 -2.625 1.125 0 0 Z " fill="#0F2734" transform="translate(162,130)"/>
<path d="M0 0 C0 0.66 0 1.32 0 2 C-0.66 2 -1.32 2 -2 2 C-2 2.99 -2 3.98 -2 5 C-5.3 6.32 -8.6 7.64 -12 9 C-12.66 8.34 -13.32 7.68 -14 7 C-12.04480616 5.82807953 -10.0857461 4.6626071 -8.125 3.5 C-7.03445312 2.8503125 -5.94390625 2.200625 -4.8203125 1.53125 C-2 0 -2 0 0 0 Z " fill="#238EBD" transform="translate(55,103)"/>
<path d="M0 0 C1.32 0 2.64 0 4 0 C4 0.66 4 1.32 4 2 C7.465 1.505 7.465 1.505 11 1 C10.34 1.66 9.68 2.32 9 3 C9.804375 3.433125 10.60875 3.86625 11.4375 4.3125 C14 6 14 6 15 9 C11.32305352 7.62859834 8.04681411 5.96304199 4.6875 3.9375 C3.80449219 3.41027344 2.92148437 2.88304687 2.01171875 2.33984375 C1.34785156 1.89769531 0.68398438 1.45554688 0 1 C0 0.67 0 0.34 0 0 Z " fill="#1E8CC3" transform="translate(22,147)"/>
<path d="M0 0 C2 1 2 1 3.125 3.75 C3.91973395 6.70186896 4.17810598 8.97219837 4 12 C2.02 12.99 2.02 12.99 0 14 C0 9.38 0 4.76 0 0 Z " fill="#1D8BBC" transform="translate(600,137)"/>
<path d="M0 0 C2.10353495 -0.0810206 4.20795952 -0.13919907 6.3125 -0.1875 C7.48425781 -0.22230469 8.65601563 -0.25710937 9.86328125 -0.29296875 C13 0 13 0 14.83984375 1.390625 C16.17824891 3.24726785 17.21465565 4.84030303 18 7 C17.625 9.25 17.625 9.25 17 11 C16.443125 9.88625 15.88625 8.7725 15.3125 7.625 C13.89680782 5.17836823 13.20362489 4.12443743 10.75 2.625 C7.17088179 1.81156404 3.65272697 1.37146376 0 1 C0 0.67 0 0.34 0 0 Z " fill="#2582B1" transform="translate(551,124)"/>
<path d="M0 0 C2.125 0.9375 2.125 0.9375 4 2 C3.67 3.32 3.34 4.64 3 6 C1.35 6.33 -0.3 6.66 -2 7 C-3 4 -3 4 -2 1 C-1.34 0.67 -0.68 0.34 0 0 Z " fill="#0B84BD" transform="translate(115,133)"/>
<path d="M0 0 C0.33 1.65 0.66 3.3 1 5 C0.01 5 -0.98 5 -2 5 C-2 5.66 -2 6.32 -2 7 C-2.99 7 -3.98 7 -5 7 C-5.33 7.66 -5.66 8.32 -6 9 C-6.66 9 -7.32 9 -8 9 C-7.53918323 4.85264908 -4.48412936 0 0 0 Z " fill="#0F86BE" transform="translate(48,148)"/>
<path d="M0 0 C0.66 0.33 1.32 0.66 2 1 C2 1.99 2 2.98 2 4 C2.66 4.66 3.32 5.32 4 6 C1.36 6 -1.28 6 -4 6 C-4.33 6.66 -4.66 7.32 -5 8 C-5.99 8 -6.98 8 -8 8 C-7.75 6.125 -7.75 6.125 -7 4 C-5.125 2.875 -5.125 2.875 -3 2 C-2.01 1.34 -1.02 0.68 0 0 Z " fill="#1D85B9" transform="translate(404,112)"/>
<path d="M0 0 C0.66 0.33 1.32 0.66 2 1 C1.50628906 1.31453125 1.01257813 1.6290625 0.50390625 1.953125 C-0.13675781 2.38109375 -0.77742188 2.8090625 -1.4375 3.25 C-2.07558594 3.66765625 -2.71367188 4.0853125 -3.37109375 4.515625 C-5.29902057 6.27248877 -5.61479436 7.46089803 -6 10 C-7.32 9.34 -8.64 8.68 -10 8 C-8.7820245 4.34607349 -7.85603494 4.04168301 -4.5625 2.25 C-3.75941406 1.80140625 -2.95632812 1.3528125 -2.12890625 0.890625 C-1.07509766 0.44976562 -1.07509766 0.44976562 0 0 Z " fill="#0C2C3B" transform="translate(102,165)"/>
<path d="M0 0 C0 3 0 3 -1.35546875 4.6484375 C-1.96003906 5.21820313 -2.56460938 5.78796875 -3.1875 6.375 C-3.82429687 6.9834375 -4.46109375 7.591875 -5.1171875 8.21875 C-5.73851562 8.8065625 -6.35984375 9.394375 -7 10 C-7.94063507 10.95525634 -8.87860959 11.9131488 -9.8125 12.875 C-12 15 -12 15 -14 16 C-12.34136495 11.67495164 -9.128959 8.90581175 -5.875 5.75 C-5.31167969 5.19570312 -4.74835937 4.64140625 -4.16796875 4.0703125 C-2.78313972 2.70895515 -1.39216796 1.35385141 0 0 Z " fill="#0E2735" transform="translate(722,120)"/>
<path d="M0 0 C4.60705199 1.49051682 7.46396484 3.78542259 11 7 C11.33 7.66 11.66 8.32 12 9 C12.99 8.67 13.98 8.34 15 8 C14.67 8.99 14.34 9.98 14 11 C12.25 10.8125 12.25 10.8125 10 10 C8.66666667 8.33333333 7.33333333 6.66666667 6 5 C4.67139075 4.64830932 3.33841672 4.31229724 2 4 C0.75 1.9375 0.75 1.9375 0 0 Z " fill="#2984B1" transform="translate(522,110)"/>
<path d="M0 0 C0 0.66 0 1.32 0 2 C-5.75 5 -5.75 5 -8 5 C-8.33 5.99 -8.66 6.98 -9 8 C-12.5625 9.1875 -12.5625 9.1875 -16 10 C-12.15364338 5.6573393 -6.12239358 0 0 0 Z " fill="#278FBC" transform="translate(167,38)"/>
<path d="M0 0 C2.29141286 -0.05384521 4.58318188 -0.09272087 6.875 -0.125 C8.78925781 -0.15980469 8.78925781 -0.15980469 10.7421875 -0.1953125 C14 0 14 0 16 2 C15.34 2.66 14.68 3.32 14 4 C11.25 3.828125 11.25 3.828125 8 3.25 C6.9275 3.06953125 5.855 2.8890625 4.75 2.703125 C2 2 2 2 0 0 Z " fill="#0D232F" transform="translate(882,121)"/>
<path d="M0 0 C0 4.16241375 -0.66208904 8.05242755 -2 12 C-4.125 14.0625 -4.125 14.0625 -6 15 C-5.61471495 8.83543922 -3.52913975 5.01372252 0 0 Z " fill="#2888B0" transform="translate(607,122)"/>
<path d="M0 0 C6.57142857 4 6.57142857 4 8 8 C5.6875 8.25 5.6875 8.25 3 8 C1.1875 6.25 1.1875 6.25 0 4 C0 2.68 0 1.36 0 0 Z " fill="#1881B6" transform="translate(352,95)"/>
<path d="M0 0 C6.93 3.96 6.93 3.96 14 8 C13.67 8.66 13.34 9.32 13 10 C11.948125 9.38125 10.89625 8.7625 9.8125 8.125 C7.55891264 6.81764506 5.60444889 5.862417 3.125 5 C2.42375 4.67 1.7225 4.34 1 4 C0.67 2.68 0.34 1.36 0 0 Z " fill="#0E232B" transform="translate(107,32)"/>
<path d="M0 0 C1.64936913 0.78427352 3.29441127 1.57765259 4.9375 2.375 C5.85402344 2.81585938 6.77054688 3.25671875 7.71484375 3.7109375 C10 5 10 5 11 7 C3.56852792 6.39086294 3.56852792 6.39086294 1 4.625 C0 3 0 3 0 0 Z " fill="#1D7DAD" transform="translate(175,161)"/>
<path d="M0 0 C0.66 0.33 1.32 0.66 2 1 C-0.475 2.485 -0.475 2.485 -3 4 C-2.67 4.99 -2.34 5.98 -2 7 C-2.66 7.66 -3.32 8.32 -4 9 C-4 8.34 -4 7.68 -4 7 C-5.98 7 -7.96 7 -10 7 C-7.01767477 3.67356033 -4.13629913 1.70847138 0 0 Z " fill="#0D2A3C" transform="translate(186,116)"/>
<path d="M0 0 C5.61 0.33 11.22 0.66 17 1 C17 3.31 17 5.62 17 8 C16.67 8 16.34 8 16 8 C16 6.02 16 4.04 16 2 C11.05 2 6.1 2 1 2 C1 2.66 1 3.32 1 4 C0.34 4 -0.32 4 -1 4 C-0.67 2.68 -0.34 1.36 0 0 Z " fill="#377BA4" transform="translate(472,108)"/>
<path d="M0 0 C0.66 0.66 1.32 1.32 2 2 C0.95199219 2.07347656 0.95199219 2.07347656 -0.1171875 2.1484375 C-1.02726562 2.22320312 -1.93734375 2.29796875 -2.875 2.375 C-3.77992187 2.44460937 -4.68484375 2.51421875 -5.6171875 2.5859375 C-8.17941903 2.79568132 -8.17941903 2.79568132 -10 5 C-10.99 4.34 -11.98 3.68 -13 3 C-8.51982193 -0.36013356 -5.41184254 -0.44359365 0 0 Z " fill="#2C8FBA" transform="translate(68,99)"/>
<path d="M0 0 C0.66 0.33 1.32 0.66 2 1 C-1.75 6.875 -1.75 6.875 -4 8 C-4.46523063 9.89533342 -4.46523063 9.89533342 -4.625 12.0625 C-4.74875 13.361875 -4.8725 14.66125 -5 16 C-5.33 16 -5.66 16 -6 16 C-6.05447047 14.58376784 -6.09300508 13.16691809 -6.125 11.75 C-6.14820313 10.96109375 -6.17140625 10.1721875 -6.1953125 9.359375 C-5.97899092 6.74621028 -5.37615982 5.21714637 -4 3 C-1.875 1.25 -1.875 1.25 0 0 Z " fill="#1583B0" transform="translate(542,128)"/>
<path d="M0 0 C2.97 0.495 2.97 0.495 6 1 C5.67 2.65 5.34 4.3 5 6 C3.35 5.67 1.7 5.34 0 5 C0 3.33333333 0 1.66666667 0 0 Z " fill="#072D3F" transform="translate(98,97)"/>
<path d="M0 0 C0.33 0 0.66 0 1 0 C1.78774617 8.03501094 1.78774617 8.03501094 -1.5 12.0625 C-2.325 12.701875 -3.15 13.34125 -4 14 C-4.33 13.34 -4.66 12.68 -5 12 C-4.34 12 -3.68 12 -3 12 C-2.01 8.04 -1.02 4.08 0 0 Z " fill="#0D242E" transform="translate(840,85)"/>
<path d="M0 0 C0.66 0.33 1.32 0.66 2 1 C1.67 1.99 1.34 2.98 1 4 C1.66 4 2.32 4 3 4 C3.33 5.98 3.66 7.96 4 10 C1.35247996 7.42215154 -0.94432065 5.08351902 -3 2 C-2.01 1.34 -1.02 0.68 0 0 Z " fill="#082130" transform="translate(716,148)"/>
<path d="M0 0 C-1.78524649 1.19713017 -3.5784028 2.38247279 -5.375 3.5625 C-6.87160156 4.55443359 -6.87160156 4.55443359 -8.3984375 5.56640625 C-9.25695312 6.03949219 -10.11546875 6.51257813 -11 7 C-11.66 6.67 -12.32 6.34 -13 6 C-12.67 5.34 -12.34 4.68 -12 4 C-11.01 4 -10.02 4 -9 4 C-8.67 3.01 -8.34 2.02 -8 1 C-4.68510482 -0.74468167 -3.63361056 -1.21120352 0 0 Z " fill="#267DA7" transform="translate(121,139)"/>
<path d="M0 0 C3.3 1.65 6.6 3.3 10 5 C6.06329512 6.31223496 3.87511856 5.24296256 0 4 C0 2.68 0 1.36 0 0 Z " fill="#208DB9" transform="translate(75,104)"/>
<path d="M0 0 C-1.6188996 1.03048037 -3.24532489 2.04914678 -4.875 3.0625 C-5.77992188 3.63097656 -6.68484375 4.19945313 -7.6171875 4.78515625 C-8.40351563 5.18605469 -9.18984375 5.58695312 -10 6 C-10.66 5.67 -11.32 5.34 -12 5 C-8.94422918 0.41634377 -5.36328527 -1.7181087 0 0 Z " fill="#207AA2" transform="translate(182,103)"/>
<path d="M0 0 C0.33 0.66 0.66 1.32 1 2 C0.67 2.99 0.34 3.98 0 5 C0.66 5 1.32 5 2 5 C2 5.66 2 6.32 2 7 C-1.77545388 5.90931332 -4.47043472 5.0916909 -7 2 C-5.824375 1.7834375 -5.824375 1.7834375 -4.625 1.5625 C-2.03578982 1.12201075 -2.03578982 1.12201075 0 0 Z " fill="#2890C1" transform="translate(174,228)"/>
<path d="M0 0 C0.99 0.33 1.98 0.66 3 1 C1.8758824 2.29243468 0.75067408 3.58392075 -0.375 4.875 C-1.00148438 5.59429687 -1.62796875 6.31359375 -2.2734375 7.0546875 C-3.47426834 8.4076598 -4.7208345 9.7208345 -6 11 C-5.34 8.03 -4.68 5.06 -4 2 C-3.01 2.33 -2.02 2.66 -1 3 C-0.67 2.01 -0.34 1.02 0 0 Z " fill="#0A232F" transform="translate(709,152)"/>
<path d="M0 0 C0.66 0.33 1.32 0.66 2 1 C1.34 2.98 0.68 4.96 0 7 C-0.99 7 -1.98 7 -3 7 C-3 6.34 -3 5.68 -3 5 C-3.99 4.67 -4.98 4.34 -6 4 C-4.02 2.68 -2.04 1.36 0 0 Z " fill="#2190C3" transform="translate(22,121)"/>
<path d="M0 0 C0.33 0 0.66 0 1 0 C1.33 1.98 1.66 3.96 2 6 C3.32 5.01 4.64 4.02 6 3 C6.66 3.33 7.32 3.66 8 4 C7.0479279 5.00596297 6.08812654 6.00461563 5.125 7 C4.59132813 7.556875 4.05765625 8.11375 3.5078125 8.6875 C2 10 2 10 0 10 C0 6.7 0 3.4 0 0 Z " fill="#298AB8" transform="translate(487,110)"/>
<path d="M0 0 C3.63 1.98 7.26 3.96 11 6 C7 7 7 7 4.9375 6.25 C2.98137845 4.98798609 1.49006152 3.78807383 0 2 C0 1.34 0 0.68 0 0 Z " fill="#238FBC" transform="translate(88,111)"/>
<path d="M0 0 C-0.33 0.99 -0.66 1.98 -1 3 C-3.31 3 -5.62 3 -8 3 C-8 2.01 -8 1.02 -8 0 C-5.13822943 -1.43088528 -3.06624227 -0.59991697 0 0 Z " fill="#0B82B6" transform="translate(185,99)"/>
<path d="M0 0 C0.66 0.33 1.32 0.66 2 1 C1.34 2.32 0.68 3.64 0 5 C1.65 5 3.3 5 5 5 C4.67 5.99 4.34 6.98 4 8 C2.02 7.34 0.04 6.68 -2 6 C-2 3 -2 3 0 0 Z " fill="#1B82B2" transform="translate(40,152)"/>
<path d="M0 0 C2.95749791 3.46741134 5.07848152 6.86873527 7 11 C6.01 11.495 6.01 11.495 5 12 C4.34 11.01 3.68 10.02 3 9 C2.46375 8.38125 1.9275 7.7625 1.375 7.125 C-0.28636724 4.55743244 -0.2500201 3.00024116 0 0 Z " fill="#0B222E" transform="translate(727,137)"/>
<path d="M0 0 C-0.66 1.65 -1.32 3.3 -2 5 C-3.65 4.67 -5.3 4.34 -7 4 C-7 3.01 -7 2.02 -7 1 C-4.53721199 -0.231394 -2.7204945 -0.07159196 0 0 Z " fill="#0A82BD" transform="translate(199,88)"/>
<path d="M0 0 C2.97 0 5.94 0 9 0 C8.34 1.32 7.68 2.64 7 4 C8.65 4 10.3 4 12 4 C12 4.33 12 4.66 12 5 C6.72209903 5.50265724 4.13774748 4.25108731 0 1 C0 0.67 0 0.34 0 0 Z " fill="#248DB8" transform="translate(176,235)"/>
<path d="M0 0 C2.03144641 0.93446535 4.03533587 1.93224776 6 3 C6 3.33 6 3.66 6 4 C2.04 4 -1.92 4 -6 4 C-2 1 -2 1 0 0 Z " fill="#04232C" transform="translate(773,176)"/>
<path d="M0 0 C4.30764815 1.56641751 8.06171464 3.68336156 12 6 C12 6.33 12 6.66 12 7 C10.35 7 8.7 7 7 7 C6.67 6.01 6.34 5.02 6 4 C4.35 3.67 2.7 3.34 1 3 C0.67 2.01 0.34 1.02 0 0 Z " fill="#23799F" transform="translate(188,169)"/>
<path d="M0 0 C0.99 0 1.98 0 3 0 C3 0.99 3 1.98 3 3 C-1.95 3 -6.9 3 -12 3 C-12 2.67 -12 2.34 -12 2 C-11.21753906 1.93941406 -10.43507813 1.87882813 -9.62890625 1.81640625 C-8.61699219 1.73261719 -7.60507812 1.64882812 -6.5625 1.5625 C-5.55316406 1.48128906 -4.54382813 1.40007812 -3.50390625 1.31640625 C-1.06359221 1.26788532 -1.06359221 1.26788532 0 0 Z " fill="#0D82BC" transform="translate(668,146)"/>
<path d="M0 0 C1.32 0.66 2.64 1.32 4 2 C3.01 2.495 3.01 2.495 2 3 C2 4.65 2 6.3 2 8 C1.01 7.67 0.02 7.34 -1 7 C-0.67 4.69 -0.34 2.38 0 0 Z " fill="#092C3E" transform="translate(91,23)"/>
<path d="M0 0 C1.26823485 3.65393537 0.75715321 6.49070026 0.0625 10.25 C-0.13214844 11.32765625 -0.32679687 12.4053125 -0.52734375 13.515625 C-0.68332031 14.33546875 -0.83929688 15.1553125 -1 16 C-1.33 16 -1.66 16 -2 16 C-2.05423638 14.08364783 -2.09289963 12.16685075 -2.125 10.25 C-2.14820312 9.18265625 -2.17140625 8.1153125 -2.1953125 7.015625 C-2.00487687 4.07529894 -1.52670104 2.47638122 0 0 Z " fill="#0F2C3A" transform="translate(74,183)"/>
<path d="M0 0 C0.66 0 1.32 0 2 0 C2 0.66 2 1.32 2 2 C3.32 2.33 4.64 2.66 6 3 C6.33 4.32 6.66 5.64 7 7 C6.67 6.34 6.34 5.68 6 5 C4.824375 5.0928125 4.824375 5.0928125 3.625 5.1875 C2.75875 5.125625 1.8925 5.06375 1 5 C0.34 4.01 -0.32 3.02 -1 2 C-0.67 1.34 -0.34 0.68 0 0 Z " fill="#0C81BB" transform="translate(202,179)"/>
<path d="M0 0 C1.40907283 2.81814566 0.50872691 4.17277204 -0.4375 7.125 C-0.72496094 8.03507813 -1.01242187 8.94515625 -1.30859375 9.8828125 C-1.53675781 10.58148438 -1.76492188 11.28015625 -2 12 C-2.33 12 -2.66 12 -3 12 C-3.2954439 6.97745369 -2.98514628 4.10457614 0 0 Z " fill="#2B8EB3" transform="translate(15,126)"/>
<path d="M0 0 C0.99 0.66 1.98 1.32 3 2 C2.34 3.65 1.68 5.3 1 7 C0.01 6.34 -0.98 5.68 -2 5 C-2 3.68 -2 2.36 -2 1 C-1.34 0.67 -0.68 0.34 0 0 Z " fill="#1691CA" transform="translate(151,112)"/>
<path d="M0 0 C0.66 0.33 1.32 0.66 2 1 C2 2.98 2 4.96 2 7 C1.34 7 0.68 7 0 7 C0 6.34 0 5.68 0 5 C-0.66 5 -1.32 5 -2 5 C-1.125 1.125 -1.125 1.125 0 0 Z " fill="#0E85BA" transform="translate(82,153)"/>
<path d="M0 0 C3.53790403 3.69172595 3.59115883 7.09390595 4 12 C1.15119698 7.72679547 -0.28990619 5.21831143 0 0 Z " fill="#2A7FA5" transform="translate(667,126)"/>
<path d="M0 0 C2.475 0.495 2.475 0.495 5 1 C3.69593116 3.01920337 2.36176581 5.01924973 1 7 C0.67 7 0.34 7 0 7 C0 4.69 0 2.38 0 0 Z " fill="#197FB4" transform="translate(491,126)"/>
<path d="M0 0 C0.99 0.66 1.98 1.32 3 2 C-1.75 5 -1.75 5 -4 5 C-3.6875 3.0625 -3.6875 3.0625 -3 1 C-2.01 0.67 -1.02 0.34 0 0 Z " fill="#07202C" transform="translate(230,162)"/>
<path d="M0 0 C4.8 3.44615385 4.8 3.44615385 5.8125 6.25 C5.874375 6.8275 5.93625 7.405 6 8 C5.34 8 4.68 8 4 8 C4 7.01 4 6.02 4 5 C3.01 5.33 2.02 5.66 1 6 C0.67 4.02 0.34 2.04 0 0 Z " fill="#1C7FAA" transform="translate(661,118)"/>
<path d="M0 0 C3.91402949 1.26941497 5.79072873 2.51167694 8 6 C6.35 5.67 4.7 5.34 3 5 C3 4.01 3 3.02 3 2 C2.01 2 1.02 2 0 2 C0 1.34 0 0.68 0 0 Z " fill="#2483B1" transform="translate(572,111)"/>
<path d="M0 0 C0.33 0.66 0.66 1.32 1 2 C0.3125 4.0625 0.3125 4.0625 -1 6 C-3.125 6.75 -3.125 6.75 -5 7 C-5 6.01 -5 5.02 -5 4 C-4.01 4 -3.02 4 -2 4 C-1.34 2.68 -0.68 1.36 0 0 Z " fill="#1C80AD" transform="translate(208,239)"/>
<path d="M0 0 C2.875 0.25 2.875 0.25 6 1 C7.375 3.0625 7.375 3.0625 8 5 C4.62496331 3.8141763 2.35277269 2.72426311 0 0 Z " fill="#2586B0" transform="translate(29,151)"/>
<path d="M0 0 C3.465 1.98 3.465 1.98 7 4 C7 4.66 7 5.32 7 6 C4.03 5.505 4.03 5.505 1 5 C0.67 3.35 0.34 1.7 0 0 Z " fill="#0C2E3A" transform="translate(239,111)"/>
<path d="M0 0 C2.89932357 2.39509338 3.50168276 4.31245243 4 8 C3.67 7.34 3.34 6.68 3 6 C2.01 6.33 1.02 6.66 0 7 C0 4.69 0 2.38 0 0 Z " fill="#1882AF" transform="translate(360,103)"/>
<path d="" fill="#000000" transform="translate(0,0)"/>
<path d="" fill="#000000" transform="translate(0,0)"/>
<path d="" fill="#000000" transform="translate(0,0)"/>
</svg>
